<?xml version="1.0" encoding="UTF-8"?>
<!--Generator: Apple Native CoreSVG 149-->
<!DOCTYPE svg
PUBLIC "-//W3C//DTD SVG 1.1//EN"
       "http://www.w3.org/Graphics/SVG/1.1/DTD/svg11.dtd">
<svg version="1.1" xmlns="http://www.w3.org/2000/svg" xmlns:xlink="http://www.w3.org/1999/xlink" width="3300" height="2200">
 <!--glyph: "uni100285.medium", point size: 100.0, font version: "17.0d9e1", template writer version: "59"-->
 <g id="Notes">
  <rect height="2200" id="artboard" style="fill:white;opacity:1" width="3300" x="0" y="0"/>
  <line style="fill:none;stroke:black;opacity:1;stroke-width:0.5;" x1="263" x2="3036" y1="292" y2="292"/>
  <text style="stroke:none;fill:black;font-family:sans-serif;font-size:13;font-weight:bold;" transform="matrix(1 0 0 1 263 322)">Weight/Scale Variations</text>
  <text style="stroke:none;fill:black;font-family:sans-serif;font-size:13;text-anchor:middle;" transform="matrix(1 0 0 1 559.711 322)">Ultralight</text>
  <text style="stroke:none;fill:black;font-family:sans-serif;font-size:13;text-anchor:middle;" transform="matrix(1 0 0 1 856.422 322)">Thin</text>
  <text style="stroke:none;fill:black;font-family:sans-serif;font-size:13;text-anchor:middle;" transform="matrix(1 0 0 1 1153.13 322)">Light</text>
  <text style="stroke:none;fill:black;font-family:sans-serif;font-size:13;text-anchor:middle;" transform="matrix(1 0 0 1 1449.84 322)">Regular</text>
  <text style="stroke:none;fill:black;font-family:sans-serif;font-size:13;text-anchor:middle;" transform="matrix(1 0 0 1 1746.56 322)">Medium</text>
  <text style="stroke:none;fill:black;font-family:sans-serif;font-size:13;text-anchor:middle;" transform="matrix(1 0 0 1 2043.27 322)">Semibold</text>
  <text style="stroke:none;fill:black;font-family:sans-serif;font-size:13;text-anchor:middle;" transform="matrix(1 0 0 1 2339.98 322)">Bold</text>
  <text style="stroke:none;fill:black;font-family:sans-serif;font-size:13;text-anchor:middle;" transform="matrix(1 0 0 1 2636.69 322)">Heavy</text>
  <text style="stroke:none;fill:black;font-family:sans-serif;font-size:13;text-anchor:middle;" transform="matrix(1 0 0 1 2933.4 322)">Black</text>
  <line style="fill:none;stroke:black;opacity:1;stroke-width:0.5;" x1="263" x2="3036" y1="1903" y2="1903"/>
  <g transform="matrix(1 0 0 1 263 1933)">
   <path d="M9.24805 0.830078Q10.8691 0.830078 12.2949 0.214844Q13.7207-0.400391 14.8096-1.49414Q15.8984-2.58789 16.5186-4.01367Q17.1387-5.43945 17.1387-7.05078Q17.1387-8.66211 16.5186-10.0879Q15.8984-11.5137 14.8047-12.6074Q13.7109-13.7012 12.2852-14.3164Q10.8594-14.9316 9.23828-14.9316Q7.62695-14.9316 6.20117-14.3164Q4.77539-13.7012 3.69141-12.6074Q2.60742-11.5137 1.9873-10.0879Q1.36719-8.66211 1.36719-7.05078Q1.36719-5.43945 1.9873-4.01367Q2.60742-2.58789 3.69629-1.49414Q4.78516-0.400391 6.21094 0.214844Q7.63672 0.830078 9.24805 0.830078ZM9.24805-0.654297Q7.91992-0.654297 6.7627-1.14746Q5.60547-1.64062 4.73145-2.51953Q3.85742-3.39844 3.36426-4.56055Q2.87109-5.72266 2.87109-7.05078Q2.87109-8.37891 3.35938-9.54102Q3.84766-10.7031 4.72168-11.582Q5.5957-12.4609 6.75293-12.9541Q7.91016-13.4473 9.23828-13.4473Q10.5762-13.4473 11.7334-12.9541Q12.8906-12.4609 13.7695-11.582Q14.6484-10.7031 15.1465-9.54102Q15.6445-8.37891 15.6445-7.05078Q15.6445-5.72266 15.1514-4.56055Q14.6582-3.39844 13.7842-2.51953Q12.9102-1.64062 11.748-1.14746Q10.5859-0.654297 9.24805-0.654297ZM5.83984-7.04102Q5.83984-6.71875 6.04492-6.51855Q6.25-6.31836 6.5918-6.31836L8.50586-6.31836L8.50586-4.39453Q8.50586-4.0625 8.70605-3.85742Q8.90625-3.65234 9.22852-3.65234Q9.56055-3.65234 9.76562-3.85742Q9.9707-4.0625 9.9707-4.39453L9.9707-6.31836L11.8945-6.31836Q12.2266-6.31836 12.4316-6.51855Q12.6367-6.71875 12.6367-7.04102Q12.6367-7.37305 12.4316-7.57812Q12.2266-7.7832 11.8945-7.7832L9.9707-7.7832L9.9707-9.69727Q9.9707-10.0391 9.76562-10.2441Q9.56055-10.4492 9.22852-10.4492Q8.90625-10.4492 8.70605-10.2441Q8.50586-10.0391 8.50586-9.69727L8.50586-7.7832L6.5918-7.7832Q6.25-7.7832 6.04492-7.57812Q5.83984-7.37305 5.83984-7.04102Z"/>
  </g>
  <g transform="matrix(1 0 0 1 281.867 1933)">
   <path d="M11.709 2.91016Q13.75 2.91016 15.5518 2.12891Q17.3535 1.34766 18.7305-0.0292969Q20.1074-1.40625 20.8887-3.20801Q21.6699-5.00977 21.6699-7.05078Q21.6699-9.0918 20.8887-10.8936Q20.1074-12.6953 18.7305-14.0723Q17.3535-15.4492 15.5469-16.2305Q13.7402-17.0117 11.6992-17.0117Q9.6582-17.0117 7.85645-16.2305Q6.05469-15.4492 4.68262-14.0723Q3.31055-12.6953 2.5293-10.8936Q1.74805-9.0918 1.74805-7.05078Q1.74805-5.00977 2.5293-3.20801Q3.31055-1.40625 4.6875-0.0292969Q6.06445 1.34766 7.86621 2.12891Q9.66797 2.91016 11.709 2.91016ZM11.709 1.25Q9.98047 1.25 8.47656 0.605469Q6.97266-0.0390625 5.83496-1.17676Q4.69727-2.31445 4.05762-3.81836Q3.41797-5.32227 3.41797-7.05078Q3.41797-8.7793 4.05762-10.2832Q4.69727-11.7871 5.83008-12.9297Q6.96289-14.0723 8.4668-14.7119Q9.9707-15.3516 11.6992-15.3516Q13.4277-15.3516 14.9316-14.7119Q16.4355-14.0723 17.5781-12.9297Q18.7207-11.7871 19.3652-10.2832Q20.0098-8.7793 20.0098-7.05078Q20.0098-5.32227 19.3701-3.81836Q18.7305-2.31445 17.5928-1.17676Q16.4551-0.0390625 14.9463 0.605469Q13.4375 1.25 11.709 1.25ZM7.39258-7.04102Q7.39258-6.68945 7.62695-6.46484Q7.86133-6.24023 8.23242-6.24023L10.8789-6.24023L10.8789-3.57422Q10.8789-3.21289 11.1035-2.9834Q11.3281-2.75391 11.6797-2.75391Q12.0508-2.75391 12.2852-2.9834Q12.5195-3.21289 12.5195-3.57422L12.5195-6.24023L15.1758-6.24023Q15.5371-6.24023 15.7715-6.46484Q16.0059-6.68945 16.0059-7.04102Q16.0059-7.41211 15.7715-7.6416Q15.5371-7.87109 15.1758-7.87109L12.5195-7.87109L12.5195-10.5176Q12.5195-10.8984 12.2852-11.1279Q12.0508-11.3574 11.6797-11.3574Q11.3281-11.3574 11.1035-11.1279Q10.8789-10.8984 10.8789-10.5176L10.8789-7.87109L8.23242-7.87109Q7.85156-7.87109 7.62207-7.6416Q7.39258-7.41211 7.39258-7.04102Z"/>
  </g>
  <g transform="matrix(1 0 0 1 305.646 1933)">
   <path d="M14.9707 5.66406Q17.0605 5.66406 18.96 5.01465Q20.8594 4.36523 22.4512 3.19336Q24.043 2.02148 25.2197 0.429688Q26.3965-1.16211 27.0459-3.06641Q27.6953-4.9707 27.6953-7.05078Q27.6953-9.14062 27.0459-11.04Q26.3965-12.9395 25.2197-14.5312Q24.043-16.123 22.4512-17.2998Q20.8594-18.4766 18.9551-19.126Q17.0508-19.7754 14.9609-19.7754Q12.8711-19.7754 10.9717-19.126Q9.07227-18.4766 7.48535-17.2998Q5.89844-16.123 4.72168-14.5312Q3.54492-12.9395 2.90039-11.04Q2.25586-9.14062 2.25586-7.05078Q2.25586-4.9707 2.90527-3.06641Q3.55469-1.16211 4.72656 0.429688Q5.89844 2.02148 7.49023 3.19336Q9.08203 4.36523 10.9814 5.01465Q12.8809 5.66406 14.9707 5.66406ZM14.9707 3.84766Q13.1641 3.84766 11.5283 3.2959Q9.89258 2.74414 8.53516 1.74805Q7.17773 0.751953 6.17676-0.610352Q5.17578-1.97266 4.62891-3.6084Q4.08203-5.24414 4.08203-7.05078Q4.08203-8.86719 4.62891-10.5029Q5.17578-12.1387 6.17188-13.501Q7.16797-14.8633 8.52539-15.8594Q9.88281-16.8555 11.5186-17.4023Q13.1543-17.9492 14.9609-17.9492Q16.7773-17.9492 18.4131-17.4023Q20.0488-16.8555 21.4111-15.8594Q22.7734-14.8633 23.7695-13.501Q24.7656-12.1387 25.3174-10.5029Q25.8691-8.86719 25.8691-7.05078Q25.8789-5.24414 25.332-3.6084Q24.7852-1.97266 23.7842-0.610352Q22.7832 0.751953 21.4209 1.74805Q20.0586 2.74414 18.4229 3.2959Q16.7871 3.84766 14.9707 3.84766ZM9.45312-7.04102Q9.45312-6.66016 9.71191-6.41113Q9.9707-6.16211 10.3711-6.16211L14.0625-6.16211L14.0625-2.46094Q14.0625-2.06055 14.3115-1.80664Q14.5605-1.55273 14.9414-1.55273Q15.3516-1.55273 15.6055-1.80664Q15.8594-2.06055 15.8594-2.46094L15.8594-6.16211L19.5605-6.16211Q19.9609-6.16211 20.2148-6.41113Q20.4688-6.66016 20.4688-7.04102Q20.4688-7.45117 20.2148-7.70508Q19.9609-7.95898 19.5605-7.95898L15.8594-7.95898L15.8594-11.6504Q15.8594-12.0605 15.6055-12.3145Q15.3516-12.5684 14.9414-12.5684Q14.5605-12.5684 14.3115-12.3096Q14.0625-12.0508 14.0625-11.6504L14.0625-7.95898L10.3711-7.95898Q9.96094-7.95898 9.70703-7.70508Q9.45312-7.45117 9.45312-7.04102Z"/>
  </g>
  <text style="stroke:none;fill:black;font-family:sans-serif;font-size:13;font-weight:bold;" transform="matrix(1 0 0 1 263 1953)">Design Variations</text>
  <text style="stroke:none;fill:black;font-family:sans-serif;font-size:13;" transform="matrix(1 0 0 1 263 1971)">Symbols are supported in up to nine weights and three scales.</text>
  <text style="stroke:none;fill:black;font-family:sans-serif;font-size:13;" transform="matrix(1 0 0 1 263 1989)">For optimal layout with text and other symbols, vertically align</text>
  <text style="stroke:none;fill:black;font-family:sans-serif;font-size:13;" transform="matrix(1 0 0 1 263 2007)">symbols with the adjacent text.</text>
  <line style="fill:none;stroke:#00AEEF;stroke-width:0.5;opacity:1.0;" x1="776" x2="776" y1="1919" y2="1933"/>
  <g transform="matrix(1 0 0 1 776 1933)">
   <path d="M3.31055 0.15625Q3.70117 0.15625 3.91602-0.00976562Q4.13086-0.175781 4.26758-0.585938L5.52734-4.0332L11.2891-4.0332L12.5488-0.585938Q12.6855-0.175781 12.9004-0.00976562Q13.1152 0.15625 13.4961 0.15625Q13.8867 0.15625 14.1162-0.0585938Q14.3457-0.273438 14.3457-0.644531Q14.3457-0.869141 14.2383-1.17188L9.6582-13.3691Q9.48242-13.8184 9.17969-14.043Q8.87695-14.2676 8.4082-14.2676Q7.5-14.2676 7.17773-13.3789L2.59766-1.16211Q2.49023-0.859375 2.49023-0.634766Q2.49023-0.263672 2.70996-0.0537109Q2.92969 0.15625 3.31055 0.15625ZM6.00586-5.51758L8.37891-12.0898L8.42773-12.0898L10.8008-5.51758Z"/>
  </g>
  <line style="fill:none;stroke:#00AEEF;stroke-width:0.5;opacity:1.0;" x1="793.197" x2="793.197" y1="1919" y2="1933"/>
  <text style="stroke:none;fill:black;font-family:sans-serif;font-size:13;font-weight:bold;" transform="matrix(1 0 0 1 776 1953)">Margins</text>
  <text style="stroke:none;fill:black;font-family:sans-serif;font-size:13;" transform="matrix(1 0 0 1 776 1971)">Leading and trailing margins on the left and right side of each symbol</text>
  <text style="stroke:none;fill:black;font-family:sans-serif;font-size:13;" transform="matrix(1 0 0 1 776 1989)">can be adjusted by modifying the x-location of the margin guidelines.</text>
  <text style="stroke:none;fill:black;font-family:sans-serif;font-size:13;" transform="matrix(1 0 0 1 776 2007)">Modifications are automatically applied proportionally to all</text>
  <text style="stroke:none;fill:black;font-family:sans-serif;font-size:13;" transform="matrix(1 0 0 1 776 2025)">scales and weights.</text>
  <g transform="matrix(1 0 0 1 1289 1933)">
   <path d="M2.8418 1.86523L4.54102 3.57422Q5.18555 4.22852 5.90332 4.17969Q6.62109 4.13086 7.31445 3.35938L18.0078-8.42773L17.041-9.4043L6.42578 2.27539Q6.16211 2.57812 5.89355 2.61719Q5.625 2.65625 5.27344 2.30469L4.10156 1.14258Q3.75 0.791016 3.79395 0.522461Q3.83789 0.253906 4.14062-0.0195312L15.6152-10.8203L14.6387-11.7871L3.04688-0.898438Q2.30469-0.214844 2.25098 0.498047Q2.19727 1.21094 2.8418 1.86523ZM9.25781-16.3281Q8.94531-16.0254 8.90625-15.6348Q8.86719-15.2441 9.04297-14.9512Q9.21875-14.6777 9.55566-14.541Q9.89258-14.4043 10.3809-14.5215Q11.4746-14.7754 12.5977-14.7314Q13.7207-14.6875 14.7949-13.9844L14.209-12.5293Q13.9551-11.9043 14.0674-11.4404Q14.1797-10.9766 14.5801-10.5664L16.875-8.25195Q17.2363-7.88086 17.5781-7.82227Q17.9199-7.76367 18.3398-7.8418L19.4043-8.03711L20.0684-7.36328L20.0293-6.80664Q20-6.43555 20.1221-6.12305Q20.2441-5.81055 20.6055-5.44922L21.3672-4.70703Q21.7285-4.3457 22.1533-4.33105Q22.5781-4.31641 22.9297-4.66797L25.8398-7.58789Q26.1914-7.93945 26.1816-8.35449Q26.1719-8.76953 25.8105-9.13086L25.0391-9.89258Q24.6875-10.2539 24.3799-10.3857Q24.0723-10.5176 23.7109-10.4883L23.1348-10.4395L22.4902-11.0742L22.7344-12.1973Q22.832-12.6172 22.6953-12.9834Q22.5586-13.3496 22.1191-13.7891L19.9219-15.9766Q18.6719-17.2168 17.2607-17.8369Q15.8496-18.457 14.4189-18.4814Q12.9883-18.5059 11.665-17.959Q10.3418-17.4121 9.25781-16.3281ZM10.752-15.957Q11.6602-16.6211 12.7002-16.9043Q13.7402-17.1875 14.8047-17.085Q15.8691-16.9824 16.8701-16.5137Q17.8711-16.0449 18.7012-15.2051L21.1328-12.793Q21.3086-12.6172 21.3525-12.4512Q21.3965-12.2852 21.3379-12.0312L21.0156-10.5469L22.5195-9.0625L23.5059-9.12109Q23.6914-9.13086 23.7891-9.09668Q23.8867-9.0625 24.0332-8.91602L24.6094-8.33984L22.168-5.89844L21.5918-6.47461Q21.4453-6.62109 21.4062-6.71875Q21.3672-6.81641 21.377-7.01172L21.4453-7.98828L19.9512-9.47266L18.4277-9.21875Q18.1836-9.16992 18.042-9.2041Q17.9004-9.23828 17.7148-9.41406L15.7129-11.416Q15.5176-11.5918 15.4932-11.7529Q15.4688-11.9141 15.5859-12.1875L16.4648-14.2773Q15.293-15.3711 13.8281-15.791Q12.3633-16.2109 10.8398-15.7617Q10.7227-15.7324 10.6885-15.8057Q10.6543-15.8789 10.752-15.957Z"/>
  </g>
  <text style="stroke:none;fill:black;font-family:sans-serif;font-size:13;font-weight:bold;" transform="matrix(1 0 0 1 1289 1953)">Exporting</text>
  <text style="stroke:none;fill:black;font-family:sans-serif;font-size:13;" transform="matrix(1 0 0 1 1289 1971)">Symbols should be outlined when exporting to ensure the</text>
  <text style="stroke:none;fill:black;font-family:sans-serif;font-size:13;" transform="matrix(1 0 0 1 1289 1989)">design is preserved when submitting to Xcode.</text>
  <text id="template-version" style="stroke:none;fill:black;font-family:sans-serif;font-size:13;text-anchor:end;" transform="matrix(1 0 0 1 3036 1933)">Template v.2.0</text>
  <text style="stroke:none;fill:black;font-family:sans-serif;font-size:13;text-anchor:end;" transform="matrix(1 0 0 1 3036 1951)">Requires Xcode 13 or greater</text>
  <text id="descriptive-name" style="stroke:none;fill:black;font-family:sans-serif;font-size:13;text-anchor:end;" transform="matrix(1 0 0 1 3036 1969)">Generated from pause</text>
  <text style="stroke:none;fill:black;font-family:sans-serif;font-size:13;text-anchor:end;" transform="matrix(1 0 0 1 3036 1987)">Typeset at 100 points</text>
  <text style="stroke:none;fill:black;font-family:sans-serif;font-size:13;" transform="matrix(1 0 0 1 263 726)">Small</text>
  <text style="stroke:none;fill:black;font-family:sans-serif;font-size:13;" transform="matrix(1 0 0 1 263 1156)">Medium</text>
  <text style="stroke:none;fill:black;font-family:sans-serif;font-size:13;" transform="matrix(1 0 0 1 263 1586)">Large</text>
 </g>
 <g id="Guides">
  <g id="H-reference" style="fill:#27AAE1;stroke:none;" transform="matrix(1 0 0 1 339 696)">
   <path d="M0.976562 0L3.66211 0L29.3457-67.1387L30.0293-67.1387L30.0293-70.459L28.125-70.459ZM11.6699-24.4629L46.9727-24.4629L46.2402-26.709L12.4512-26.709ZM55.127 0L57.7637 0L30.6152-70.459L29.4434-70.459L29.4434-67.1387Z"/>
  </g>
  <line id="Baseline-S" style="fill:none;stroke:#27AAE1;opacity:1;stroke-width:0.5;" x1="263" x2="3036" y1="696" y2="696"/>
  <line id="Capline-S" style="fill:none;stroke:#27AAE1;opacity:1;stroke-width:0.5;" x1="263" x2="3036" y1="625.541" y2="625.541"/>
  <g id="H-reference" style="fill:#27AAE1;stroke:none;" transform="matrix(1 0 0 1 339 1126)">
   <path d="M0.976562 0L3.66211 0L29.3457-67.1387L30.0293-67.1387L30.0293-70.459L28.125-70.459ZM11.6699-24.4629L46.9727-24.4629L46.2402-26.709L12.4512-26.709ZM55.127 0L57.7637 0L30.6152-70.459L29.4434-70.459L29.4434-67.1387Z"/>
  </g>
  <line id="Baseline-M" style="fill:none;stroke:#27AAE1;opacity:1;stroke-width:0.5;" x1="263" x2="3036" y1="1126" y2="1126"/>
  <line id="Capline-M" style="fill:none;stroke:#27AAE1;opacity:1;stroke-width:0.5;" x1="263" x2="3036" y1="1055.54" y2="1055.54"/>
  <g id="H-reference" style="fill:#27AAE1;stroke:none;" transform="matrix(1 0 0 1 339 1556)">
   <path d="M0.976562 0L3.66211 0L29.3457-67.1387L30.0293-67.1387L30.0293-70.459L28.125-70.459ZM11.6699-24.4629L46.9727-24.4629L46.2402-26.709L12.4512-26.709ZM55.127 0L57.7637 0L30.6152-70.459L29.4434-70.459L29.4434-67.1387Z"/>
  </g>
  <line id="Baseline-L" style="fill:none;stroke:#27AAE1;opacity:1;stroke-width:0.5;" x1="263" x2="3036" y1="1556" y2="1556"/>
  <line id="Capline-L" style="fill:none;stroke:#27AAE1;opacity:1;stroke-width:0.5;" x1="263" x2="3036" y1="1485.54" y2="1485.54"/>
  <line id="left-margin" style="fill:none;stroke:#00AEEF;stroke-width:0.5;opacity:1.0;" x1="1417.08" x2="1417.08" y1="1030.79" y2="1150.12"/>
  <line id="right-margin" style="fill:none;stroke:#00AEEF;stroke-width:0.5;opacity:1.0;" x1="1482.61" x2="1482.61" y1="1030.79" y2="1150.12"/>
 </g>
 <g id="Symbols">
  <g id="Black-L" transform="matrix(1 0 0 1 2879.47 1556)">
   <path d="M28.3203 21.4844Q33.6426 21.4844 37.1338 18.0908Q40.625 14.6973 40.625 9.57031L40.625-80.0293Q40.625-85.1562 37.1338-88.5254Q33.6426-91.8945 28.3203-91.8945Q22.998-91.8945 19.5312-88.5254Q16.0645-85.1562 16.0645-80.0293L16.0645 9.57031Q16.0645 14.6973 19.5312 18.0908Q22.998 21.4844 28.3203 21.4844ZM79.4922 21.4844Q84.8145 21.4844 88.3057 18.0908Q91.7969 14.6973 91.7969 9.57031L91.7969-80.0293Q91.7969-85.1562 88.3057-88.5254Q84.8145-91.8945 79.4922-91.8945Q74.1699-91.8945 70.7031-88.5254Q67.2363-85.1562 67.2363-80.0293L67.2363 9.57031Q67.2363 14.6973 70.7031 18.0908Q74.1699 21.4844 79.4922 21.4844Z"/>
  </g>
  <g id="Heavy-L" transform="matrix(1 0 0 1 2585.71 1556)">
   <path d="M26.5137 20.166Q31.0059 20.166 33.9844 17.2852Q36.9629 14.4043 36.9629 10.0098L36.9629-80.4688Q36.9629-84.8145 33.9844-87.6953Q31.0059-90.5762 26.5137-90.5762Q21.9727-90.5762 19.0186-87.6953Q16.0645-84.8145 16.0645-80.4688L16.0645 10.0098Q16.0645 14.4043 19.0186 17.2852Q21.9727 20.166 26.5137 20.166ZM75.3906 20.166Q79.8828 20.166 82.8857 17.2852Q85.8887 14.4043 85.8887 10.0098L85.8887-80.4688Q85.8887-84.8145 82.8857-87.6953Q79.8828-90.5762 75.3906-90.5762Q70.8984-90.5762 67.9199-87.6953Q64.9414-84.8145 64.9414-80.4688L64.9414 10.0098Q64.9414 14.4043 67.9199 17.2852Q70.8984 20.166 75.3906 20.166Z"/>
  </g>
  <g id="Bold-L" transform="matrix(1 0 0 1 2292.32 1556)">
   <path d="M24.5117 18.75Q28.0762 18.75 30.4932 16.4062Q32.9102 14.0625 32.9102 10.5469L32.9102-80.957Q32.9102-84.4727 30.4932-86.8164Q28.0762-89.1602 24.5117-89.1602Q20.8984-89.1602 18.4814-86.8164Q16.0645-84.4727 16.0645-80.957L16.0645 10.5469Q16.0645 14.0625 18.4814 16.4062Q20.8984 18.75 24.5117 18.75ZM70.8496 18.75Q74.4141 18.75 76.8311 16.4062Q79.248 14.0625 79.248 10.5469L79.248-80.957Q79.248-84.4727 76.8311-86.8164Q74.4141-89.1602 70.8496-89.1602Q67.2363-89.1602 64.8193-86.8164Q62.4023-84.4727 62.4023-80.957L62.4023 10.5469Q62.4023 14.0625 64.8193 16.4062Q67.2363 18.75 70.8496 18.75Z"/>
  </g>
  <g id="Semibold-L" transform="matrix(1 0 0 1 1997.91 1556)">
   <path d="M23.0957 17.7246Q26.0742 17.7246 28.0762 15.7715Q30.0781 13.8184 30.0781 10.8887L30.0781-81.2988Q30.0781-84.2285 28.0762-86.1816Q26.0742-88.1348 23.0957-88.1348Q20.1172-88.1348 18.0908-86.1816Q16.0645-84.2285 16.0645-81.2988L16.0645 10.8887Q16.0645 13.8184 18.0908 15.7715Q20.1172 17.7246 23.0957 17.7246ZM67.6758 17.7246Q70.6055 17.7246 72.6318 15.7715Q74.6582 13.8184 74.6582 10.8887L74.6582-81.2988Q74.6582-84.2285 72.6318-86.1816Q70.6055-88.1348 67.6758-88.1348Q64.6973-88.1348 62.6709-86.1816Q60.6445-84.2285 60.6445-81.2988L60.6445 10.8887Q60.6445 13.8184 62.6709 15.7715Q64.6973 17.7246 67.6758 17.7246Z"/>
  </g>
  <g id="Medium-L" transform="matrix(1 0 0 1 1702.9 1556)">
   <path d="M22.0215 16.9434Q24.5117 16.9434 26.2451 15.2832Q27.9785 13.623 27.9785 11.1816L27.9785-81.543Q27.9785-84.0332 26.2451-85.6934Q24.5117-87.3535 22.0215-87.3535Q19.5312-87.3535 17.7979-85.6934Q16.0645-84.0332 16.0645-81.543L16.0645 11.1816Q16.0645 13.623 17.7979 15.2832Q19.5312 16.9434 22.0215 16.9434ZM65.2832 16.9434Q67.7734 16.9434 69.5068 15.2832Q71.2402 13.623 71.2402 11.1816L71.2402-81.543Q71.2402-84.0332 69.5068-85.6934Q67.7734-87.3535 65.2832-87.3535Q62.7441-87.3535 61.0352-85.6934Q59.3262-84.0332 59.3262-81.543L59.3262 11.1816Q59.3262 13.623 61.0352 15.2832Q62.7441 16.9434 65.2832 16.9434Z"/>
  </g>
  <g id="Regular-L" transform="matrix(1 0 0 1 1408.46 1556)">
   <path d="M20.6543 15.9668Q22.5098 15.9668 23.8525 14.6729Q25.1953 13.3789 25.1953 11.5234L25.1953-81.8848Q25.1953-83.7891 23.8525-85.083Q22.5098-86.377 20.6543-86.377Q18.75-86.377 17.4072-85.083Q16.0645-83.7891 16.0645-81.8848L16.0645 11.5234Q16.0645 13.3789 17.4072 14.6729Q18.75 15.9668 20.6543 15.9668ZM62.1582 15.9668Q64.0137 15.9668 65.3564 14.6729Q66.6992 13.3789 66.6992 11.5234L66.6992-81.8848Q66.6992-83.7891 65.3564-85.083Q64.0137-86.377 62.1582-86.377Q60.2539-86.377 58.9111-85.083Q57.5684-83.7891 57.5684-81.8848L57.5684 11.5234Q57.5684 13.3789 58.9111 14.6729Q60.2539 15.9668 62.1582 15.9668Z"/>
  </g>
  <g id="Light-L" transform="matrix(1 0 0 1 1112.95 1556)">
   <path d="M19.5312 14.7949Q20.9473 14.7949 21.9727 13.8184Q22.998 12.8418 22.998 11.4258L22.998-81.7871Q22.998-83.2031 21.9727-84.2041Q20.9473-85.2051 19.5312-85.2051Q18.1152-85.2051 17.0898-84.2041Q16.0645-83.2031 16.0645-81.7871L16.0645 11.4258Q16.0645 12.8418 17.0898 13.8184Q18.1152 14.7949 19.5312 14.7949ZM60.8398 14.7949Q62.2559 14.7949 63.2812 13.8184Q64.3066 12.8418 64.3066 11.4258L64.3066-81.7871Q64.3066-83.2031 63.2812-84.2041Q62.2559-85.2051 60.8398-85.2051Q59.4238-85.2051 58.3984-84.2041Q57.373-83.2031 57.373-81.7871L57.373 11.4258Q57.373 12.8418 58.3984 13.8184Q59.4238 14.7949 60.8398 14.7949Z"/>
  </g>
  <g id="Thin-L" transform="matrix(1 0 0 1 817.824 1556)">
   <path d="M18.0664 13.2324Q18.8965 13.2324 19.4824 12.6465Q20.0684 12.0605 20.0684 11.2305L20.0684-81.6406Q20.0684-82.4707 19.4824-83.0566Q18.8965-83.6426 18.0664-83.6426Q17.2363-83.6426 16.6504-83.0566Q16.0645-82.4707 16.0645-81.6406L16.0645 11.2305Q16.0645 12.0605 16.6504 12.6465Q17.2363 13.2324 18.0664 13.2324ZM59.1309 13.2324Q59.9609 13.2324 60.5469 12.6465Q61.1328 12.0605 61.1328 11.2305L61.1328-81.6406Q61.1328-82.4707 60.5469-83.0566Q59.9609-83.6426 59.1309-83.6426Q58.3008-83.6426 57.7148-83.0566Q57.1289-82.4707 57.1289-81.6406L57.1289 11.2305Q57.1289 12.0605 57.7148 12.6465Q58.3008 13.2324 59.1309 13.2324Z"/>
  </g>
  <g id="Ultralight-L" transform="matrix(1 0 0 1 521.918 1556)">
   <path d="M17.2852 12.4023Q17.8223 12.4023 18.1885 12.0605Q18.5547 11.7188 18.5547 11.1816L18.5547-81.543Q18.5547-82.0801 18.1885-82.4463Q17.8223-82.8125 17.2852-82.8125Q16.7969-82.8125 16.4307-82.4463Q16.0645-82.0801 16.0645-81.543L16.0645 11.1816Q16.0645 11.7188 16.4307 12.0605Q16.7969 12.4023 17.2852 12.4023ZM58.252 12.4023Q58.7891 12.4023 59.1553 12.0605Q59.5215 11.7188 59.5215 11.1816L59.5215-81.543Q59.5215-82.0801 59.1553-82.4463Q58.7891-82.8125 58.252-82.8125Q57.7637-82.8125 57.3975-82.4463Q57.0312-82.0801 57.0312-81.543L57.0312 11.1816Q57.0312 11.7188 57.3975 12.0605Q57.7637 12.4023 58.252 12.4023Z"/>
  </g>
  <g id="Black-M" transform="matrix(1 0 0 1 2889.48 1126)">
   <path d="M23.1445 9.42383Q27.832 9.42383 30.835 6.46973Q33.8379 3.51562 33.8379-0.927734L33.8379-69.5312Q33.8379-73.9746 30.835-76.9287Q27.832-79.8828 23.1445-79.8828Q18.457-79.8828 15.4541-76.9287Q12.4512-73.9746 12.4512-69.5312L12.4512-0.927734Q12.4512 3.51562 15.4541 6.46973Q18.457 9.42383 23.1445 9.42383ZM64.6973 9.42383Q69.3359 9.42383 72.3633 6.46973Q75.3906 3.51562 75.3906-0.927734L75.3906-69.5312Q75.3906-73.9746 72.3633-76.9287Q69.3359-79.8828 64.6973-79.8828Q60.0098-79.8828 57.0068-76.9287Q54.0039-73.9746 54.0039-69.5312L54.0039-0.927734Q54.0039 3.51562 57.0068 6.46973Q60.0098 9.42383 64.6973 9.42383Z"/>
  </g>
  <g id="Heavy-M" transform="matrix(1 0 0 1 2595.4 1126)">
   <path d="M21.582 8.39844Q25.5859 8.39844 28.1738 5.85938Q30.7617 3.32031 30.7617-0.439453L30.7617-69.9707Q30.7617-73.7793 28.1738-76.3184Q25.5859-78.8574 21.582-78.8574Q17.627-78.8574 15.0391-76.3184Q12.4512-73.7793 12.4512-69.9707L12.4512-0.439453Q12.4512 3.32031 15.0391 5.85938Q17.627 8.39844 21.582 8.39844ZM60.9863 8.39844Q64.9414 8.39844 67.5293 5.85938Q70.1172 3.32031 70.1172-0.439453L70.1172-69.9707Q70.1172-73.7793 67.5293-76.3184Q64.9414-78.8574 60.9863-78.8574Q56.9824-78.8574 54.3945-76.3184Q51.8066-73.7793 51.8066-69.9707L51.8066-0.439453Q51.8066 3.32031 54.3945 5.85938Q56.9824 8.39844 60.9863 8.39844Z"/>
  </g>
  <g id="Bold-M" transform="matrix(1 0 0 1 2301.62 1126)">
   <path d="M19.873 7.27539Q23.0957 7.27539 25.2197 5.22461Q27.3438 3.17383 27.3438 0.0976562L27.3438-70.5078Q27.3438-73.584 25.2197-75.6592Q23.0957-77.7344 19.873-77.7344Q16.6992-77.7344 14.5752-75.6592Q12.4512-73.584 12.4512-70.5078L12.4512 0.0976562Q12.4512 3.17383 14.5752 5.22461Q16.6992 7.27539 19.873 7.27539ZM56.7871 7.27539Q60.0098 7.27539 62.1338 5.22461Q64.2578 3.17383 64.2578 0.0976562L64.2578-70.5078Q64.2578-73.584 62.1338-75.6592Q60.0098-77.7344 56.7871-77.7344Q53.6133-77.7344 51.4893-75.6592Q49.3652-73.584 49.3652-70.5078L49.3652 0.0976562Q49.3652 3.17383 51.4893 5.22461Q53.6133 7.27539 56.7871 7.27539Z"/>
  </g>
  <g id="Semibold-M" transform="matrix(1 0 0 1 2006.96 1126)">
   <path d="M18.7012 6.49414Q21.3867 6.49414 23.1689 4.76074Q24.9512 3.02734 24.9512 0.439453L24.9512-70.8496Q24.9512-73.4375 23.1689-75.1709Q21.3867-76.9043 18.7012-76.9043Q16.0156-76.9043 14.2334-75.1709Q12.4512-73.4375 12.4512-70.8496L12.4512 0.439453Q12.4512 3.02734 14.2334 4.76074Q16.0156 6.49414 18.7012 6.49414ZM53.9062 6.49414Q56.5918 6.49414 58.374 4.76074Q60.1562 3.02734 60.1562 0.439453L60.1562-70.8496Q60.1562-73.4375 58.374-75.1709Q56.5918-76.9043 53.9062-76.9043Q51.2695-76.9043 49.4629-75.1709Q47.6562-73.4375 47.6562-70.8496L47.6562 0.439453Q47.6562 3.02734 49.4629 4.76074Q51.2695 6.49414 53.9062 6.49414Z"/>
  </g>
  <g id="Medium-M" transform="matrix(1 0 0 1 1711.79 1126)">
   <path d="M17.7734 5.9082Q20.0684 5.9082 21.6064 4.41895Q23.1445 2.92969 23.1445 0.732422L23.1445-71.0938Q23.1445-73.3398 21.6064-74.8291Q20.0684-76.3184 17.7734-76.3184Q15.5273-76.3184 13.9893-74.8291Q12.4512-73.3398 12.4512-71.0938L12.4512 0.732422Q12.4512 2.92969 13.9893 4.41895Q15.5273 5.9082 17.7734 5.9082ZM51.709 5.9082Q54.0039 5.9082 55.542 4.41895Q57.0801 2.92969 57.0801 0.732422L57.0801-71.0938Q57.0801-73.3398 55.542-74.8291Q54.0039-76.3184 51.709-76.3184Q49.4629-76.3184 47.9248-74.8291Q46.3867-73.3398 46.3867-71.0938L46.3867 0.732422Q46.3867 2.92969 47.9248 4.41895Q49.4629 5.9082 51.709 5.9082Z"/>
  </g>
  <g id="Regular-M" transform="matrix(1 0 0 1 1417.08 1126)">
   <path d="M16.6016 5.12695Q18.3594 5.12695 19.5801 3.95508Q20.8008 2.7832 20.8008 1.07422L20.8008-71.4355Q20.8008-73.1934 19.5801-74.3652Q18.3594-75.5371 16.6016-75.5371Q14.8926-75.5371 13.6719-74.3652Q12.4512-73.1934 12.4512-71.4355L12.4512 1.07422Q12.4512 2.7832 13.6719 3.95508Q14.8926 5.12695 16.6016 5.12695ZM48.877 5.12695Q50.6348 5.12695 51.8555 3.95508Q53.0762 2.7832 53.0762 1.07422L53.0762-71.4355Q53.0762-73.1934 51.8555-74.3652Q50.6348-75.5371 48.877-75.5371Q47.168-75.5371 45.9473-74.3652Q44.7266-73.1934 44.7266-71.4355L44.7266 1.07422Q44.7266 2.7832 45.9473 3.95508Q47.168 5.12695 48.877 5.12695Z"/>
  </g>
  <g id="Light-M" transform="matrix(1 0 0 1 1121.44 1126)">
   <path d="M15.625 4.05273Q16.9434 4.05273 17.8711 3.14941Q18.7988 2.24609 18.7988 0.976562L18.7988-71.3379Q18.7988-72.6562 17.8711-73.5596Q16.9434-74.4629 15.625-74.4629Q14.3066-74.4629 13.3789-73.5596Q12.4512-72.6562 12.4512-71.3379L12.4512 0.976562Q12.4512 2.24609 13.3789 3.14941Q14.3066 4.05273 15.625 4.05273ZM47.7051 4.05273Q49.0723 4.05273 50 3.14941Q50.9277 2.24609 50.9277 0.976562L50.9277-71.3379Q50.9277-72.6562 50-73.5596Q49.0723-74.4629 47.7051-74.4629Q46.4355-74.4629 45.5078-73.5596Q44.5801-72.6562 44.5801-71.3379L44.5801 0.976562Q44.5801 2.24609 45.5078 3.14941Q46.4355 4.05273 47.7051 4.05273Z"/>
  </g>
  <g id="Thin-M" transform="matrix(1 0 0 1 826.149 1126)">
   <path d="M14.3066 2.68555Q15.0879 2.68555 15.6494 2.14844Q16.2109 1.61133 16.2109 0.830078L16.2109-71.2402Q16.2109-72.0215 15.6494-72.5586Q15.0879-73.0957 14.3066-73.0957Q13.5742-73.0957 13.0127-72.5586Q12.4512-72.0215 12.4512-71.2402L12.4512 0.830078Q12.4512 1.61133 13.0127 2.14844Q13.5742 2.68555 14.3066 2.68555ZM46.1914 2.68555Q46.9727 2.68555 47.5342 2.14844Q48.0957 1.61133 48.0957 0.830078L48.0957-71.2402Q48.0957-72.0215 47.5342-72.5586Q46.9727-73.0957 46.1914-73.0957Q45.459-73.0957 44.8975-72.5586Q44.3359-72.0215 44.3359-71.2402L44.3359 0.830078Q44.3359 1.61133 44.8975 2.14844Q45.459 2.68555 46.1914 2.68555Z"/>
  </g>
  <g id="Ultralight-M" transform="matrix(1 0 0 1 530.17 1126)">
   <path d="M13.6719 1.95312Q14.1602 1.95312 14.502 1.58691Q14.8438 1.2207 14.8438 0.732422L14.8438-71.1426Q14.8438-71.6309 14.502-71.9971Q14.1602-72.3633 13.6719-72.3633Q13.1836-72.3633 12.8174-71.9971Q12.4512-71.6309 12.4512-71.1426L12.4512 0.732422Q12.4512 1.2207 12.8174 1.58691Q13.1836 1.95312 13.6719 1.95312ZM45.4102 1.95312Q45.8984 1.95312 46.2646 1.58691Q46.6309 1.2207 46.6309 0.732422L46.6309-71.1426Q46.6309-71.6309 46.2646-71.9971Q45.8984-72.3633 45.4102-72.3633Q44.9219-72.3633 44.5801-71.9971Q44.2383-71.6309 44.2383-71.1426L44.2383 0.732422Q44.2383 1.2207 44.5801 1.58691Q44.9219 1.95312 45.4102 1.95312Z"/>
  </g>
  <g id="Black-S" transform="matrix(1 0 0 1 2898.24 696)">
   <path d="M18.5547 0Q22.4121 0 24.8779-2.41699Q27.3438-4.83398 27.3438-8.49609L27.3438-61.9629Q27.3438-65.625 24.8779-68.042Q22.4121-70.459 18.5547-70.459Q14.6973-70.459 12.2314-68.042Q9.76562-65.625 9.76562-61.9629L9.76562-8.49609Q9.76562-4.83398 12.2314-2.41699Q14.6973 0 18.5547 0ZM51.7578 0Q55.6152 0 58.0811-2.41699Q60.5469-4.83398 60.5469-8.49609L60.5469-61.9629Q60.5469-65.625 58.0811-68.042Q55.6152-70.459 51.7578-70.459Q47.9004-70.459 45.4346-68.042Q42.9688-65.625 42.9688-61.9629L42.9688-8.49609Q42.9688-4.83398 45.4346-2.41699Q47.9004 0 51.7578 0Z"/>
  </g>
  <g id="Heavy-S" transform="matrix(1 0 0 1 2603.66 696)">
   <path d="M17.3828-0.732422Q20.7031-0.732422 22.8271-2.83203Q24.9512-4.93164 24.9512-8.10547L24.9512-62.3535Q24.9512-65.5273 22.8271-67.627Q20.7031-69.7266 17.3828-69.7266Q14.0625-69.7266 11.9141-67.627Q9.76562-65.5273 9.76562-62.3535L9.76562-8.10547Q9.76562-4.93164 11.9141-2.83203Q14.0625-0.732422 17.3828-0.732422ZM48.7305-0.732422Q52.0508-0.732422 54.1748-2.83203Q56.2988-4.93164 56.2988-8.10547L56.2988-62.3535Q56.2988-65.5273 54.1748-67.627Q52.0508-69.7266 48.7305-69.7266Q45.4102-69.7266 43.2617-67.627Q41.1133-65.5273 41.1133-62.3535L41.1133-8.10547Q41.1133-4.93164 43.2617-2.83203Q45.4102-0.732422 48.7305-0.732422Z"/>
  </g>
  <g id="Bold-S" transform="matrix(1 0 0 1 2309.29 696)">
   <path d="M16.0645-1.5625Q18.75-1.5625 20.5322-3.2959Q22.3145-5.0293 22.3145-7.61719L22.3145-62.8418Q22.3145-65.4297 20.5322-67.1631Q18.75-68.8965 16.0645-68.8965Q13.3301-68.8965 11.5479-67.1631Q9.76562-65.4297 9.76562-62.8418L9.76562-7.61719Q9.76562-5.0293 11.5479-3.2959Q13.3301-1.5625 16.0645-1.5625ZM45.3125-1.5625Q48.0469-1.5625 49.8291-3.2959Q51.6113-5.0293 51.6113-7.61719L51.6113-62.8418Q51.6113-65.4297 49.8291-67.1631Q48.0469-68.8965 45.3125-68.8965Q42.627-68.8965 40.8447-67.1631Q39.0625-65.4297 39.0625-62.8418L39.0625-7.61719Q39.0625-5.0293 40.8447-3.2959Q42.627-1.5625 45.3125-1.5625Z"/>
  </g>
  <g id="Semibold-S" transform="matrix(1 0 0 1 2014.21 696)">
   <path d="M15.1367-2.09961Q17.4316-2.09961 18.9697-3.58887Q20.5078-5.07812 20.5078-7.27539L20.5078-63.1348Q20.5078-65.332 18.9697-66.8213Q17.4316-68.3105 15.1367-68.3105Q12.8418-68.3105 11.3037-66.8213Q9.76562-65.332 9.76562-63.1348L9.76562-7.27539Q9.76562-5.07812 11.3037-3.58887Q12.8418-2.09961 15.1367-2.09961ZM42.9688-2.09961Q45.2637-2.09961 46.8018-3.58887Q48.3398-5.07812 48.3398-7.27539L48.3398-63.1348Q48.3398-65.332 46.8018-66.8213Q45.2637-68.3105 42.9688-68.3105Q40.7227-68.3105 39.1602-66.8213Q37.5977-65.332 37.5977-63.1348L37.5977-7.27539Q37.5977-5.07812 39.1602-3.58887Q40.7227-2.09961 42.9688-2.09961Z"/>
  </g>
  <g id="Medium-S" transform="matrix(1 0 0 1 1718.75 696)">
   <path d="M14.4531-2.53906Q16.4062-2.53906 17.749-3.85742Q19.0918-5.17578 19.0918-7.03125L19.0918-63.3789Q19.0918-65.2832 17.749-66.6016Q16.4062-67.9199 14.4531-67.9199Q12.4512-67.9199 11.1084-66.6016Q9.76562-65.2832 9.76562-63.3789L9.76562-7.03125Q9.76562-5.17578 11.1084-3.85742Q12.4512-2.53906 14.4531-2.53906ZM41.2109-2.53906Q43.1641-2.53906 44.5068-3.85742Q45.8496-5.17578 45.8496-7.03125L45.8496-63.3789Q45.8496-65.2832 44.5068-66.6016Q43.1641-67.9199 41.2109-67.9199Q39.2578-67.9199 37.8906-66.6016Q36.5234-65.2832 36.5234-63.3789L36.5234-7.03125Q36.5234-5.17578 37.8906-3.85742Q39.2578-2.53906 41.2109-2.53906Z"/>
  </g>
  <g id="Regular-S" transform="matrix(1 0 0 1 1423.65 696)">
   <path d="M13.5254-3.07617Q15.0879-3.07617 16.1865-4.15039Q17.2852-5.22461 17.2852-6.73828L17.2852-63.6719Q17.2852-65.1855 16.1865-66.2598Q15.0879-67.334 13.5254-67.334Q11.9629-67.334 10.8643-66.2598Q9.76562-65.1855 9.76562-63.6719L9.76562-6.73828Q9.76562-5.22461 10.8643-4.15039Q11.9629-3.07617 13.5254-3.07617ZM38.8672-3.07617Q40.4297-3.07617 41.5283-4.15039Q42.627-5.22461 42.627-6.73828L42.627-63.6719Q42.627-65.1855 41.5283-66.2598Q40.4297-67.334 38.8672-67.334Q37.3535-67.334 36.2305-66.2598Q35.1074-65.1855 35.1074-63.6719L35.1074-6.73828Q35.1074-5.22461 36.2305-4.15039Q37.3535-3.07617 38.8672-3.07617Z"/>
  </g>
  <g id="Light-S" transform="matrix(1 0 0 1 1127.89 696)">
   <path d="M12.6465-4.00391Q13.8184-4.00391 14.6729-4.83398Q15.5273-5.66406 15.5273-6.83594L15.5273-63.5742Q15.5273-64.7461 14.6729-65.5762Q13.8184-66.4062 12.6465-66.4062Q11.4258-66.4062 10.5957-65.5762Q9.76562-64.7461 9.76562-63.5742L9.76562-6.83594Q9.76562-5.66406 10.5957-4.83398Q11.4258-4.00391 12.6465-4.00391ZM37.8418-4.00391Q39.0137-4.00391 39.8682-4.83398Q40.7227-5.66406 40.7227-6.83594L40.7227-63.5742Q40.7227-64.7461 39.8682-65.5762Q39.0137-66.4062 37.8418-66.4062Q36.6699-66.4062 35.8154-65.5762Q34.9609-64.7461 34.9609-63.5742L34.9609-6.83594Q34.9609-5.66406 35.8154-4.83398Q36.6699-4.00391 37.8418-4.00391Z"/>
  </g>
  <g id="Thin-S" transform="matrix(1 0 0 1 832.448 696)">
   <path d="M11.4746-5.27344Q12.1582-5.27344 12.6709-5.76172Q13.1836-6.25 13.1836-6.93359L13.1836-63.4766Q13.1836-64.1602 12.6709-64.6484Q12.1582-65.1367 11.4746-65.1367Q10.791-65.1367 10.2783-64.6484Q9.76562-64.1602 9.76562-63.4766L9.76562-6.93359Q9.76562-6.25 10.2783-5.76172Q10.791-5.27344 11.4746-5.27344ZM36.5234-5.27344Q37.207-5.27344 37.6953-5.76172Q38.1836-6.25 38.1836-6.93359L38.1836-63.4766Q38.1836-64.1602 37.6953-64.6484Q37.207-65.1367 36.5234-65.1367Q35.791-65.1367 35.3027-64.6484Q34.8145-64.1602 34.8145-63.4766L34.8145-6.93359Q34.8145-6.25 35.3027-5.76172Q35.791-5.27344 36.5234-5.27344Z"/>
  </g>
  <g id="Ultralight-S" transform="matrix(1 0 0 1 536.371 696)">
   <path d="M10.8887-5.9082Q11.3281-5.9082 11.6455-6.22559Q11.9629-6.54297 11.9629-7.03125L11.9629-63.3789Q11.9629-63.8672 11.6455-64.1846Q11.3281-64.502 10.8887-64.502Q10.4004-64.502 10.083-64.1846Q9.76562-63.8672 9.76562-63.3789L9.76562-7.03125Q9.76562-6.54297 10.083-6.22559Q10.4004-5.9082 10.8887-5.9082ZM35.8398-5.9082Q36.2305-5.9082 36.5723-6.22559Q36.9141-6.54297 36.9141-7.03125L36.9141-63.3789Q36.9141-63.8672 36.5723-64.1846Q36.2305-64.502 35.8398-64.502Q35.3516-64.502 35.0342-64.1846Q34.7168-63.8672 34.7168-63.3789L34.7168-7.03125Q34.7168-6.54297 35.0342-6.22559Q35.3516-5.9082 35.8398-5.9082Z"/>
  </g>
 </g>
</svg>
