<?xml version="1.0" encoding="UTF-8"?>
<!--Generator: Apple Native CoreSVG 149-->
<!DOCTYPE svg
PUBLIC "-//W3C//DTD SVG 1.1//EN"
       "http://www.w3.org/Graphics/SVG/1.1/DTD/svg11.dtd">
<svg version="1.1" xmlns="http://www.w3.org/2000/svg" xmlns:xlink="http://www.w3.org/1999/xlink" width="3300" height="2200">
 <!--glyph: "uni100283.medium", point size: 100.0, font version: "17.0d9e1", template writer version: "59"-->
 <g id="Notes">
  <rect height="2200" id="artboard" style="fill:white;opacity:1" width="3300" x="0" y="0"/>
  <line style="fill:none;stroke:black;opacity:1;stroke-width:0.5;" x1="263" x2="3036" y1="292" y2="292"/>
  <text style="stroke:none;fill:black;font-family:sans-serif;font-size:13;font-weight:bold;" transform="matrix(1 0 0 1 263 322)">Weight/Scale Variations</text>
  <text style="stroke:none;fill:black;font-family:sans-serif;font-size:13;text-anchor:middle;" transform="matrix(1 0 0 1 559.711 322)">Ultralight</text>
  <text style="stroke:none;fill:black;font-family:sans-serif;font-size:13;text-anchor:middle;" transform="matrix(1 0 0 1 856.422 322)">Thin</text>
  <text style="stroke:none;fill:black;font-family:sans-serif;font-size:13;text-anchor:middle;" transform="matrix(1 0 0 1 1153.13 322)">Light</text>
  <text style="stroke:none;fill:black;font-family:sans-serif;font-size:13;text-anchor:middle;" transform="matrix(1 0 0 1 1449.84 322)">Regular</text>
  <text style="stroke:none;fill:black;font-family:sans-serif;font-size:13;text-anchor:middle;" transform="matrix(1 0 0 1 1746.56 322)">Medium</text>
  <text style="stroke:none;fill:black;font-family:sans-serif;font-size:13;text-anchor:middle;" transform="matrix(1 0 0 1 2043.27 322)">Semibold</text>
  <text style="stroke:none;fill:black;font-family:sans-serif;font-size:13;text-anchor:middle;" transform="matrix(1 0 0 1 2339.98 322)">Bold</text>
  <text style="stroke:none;fill:black;font-family:sans-serif;font-size:13;text-anchor:middle;" transform="matrix(1 0 0 1 2636.69 322)">Heavy</text>
  <text style="stroke:none;fill:black;font-family:sans-serif;font-size:13;text-anchor:middle;" transform="matrix(1 0 0 1 2933.4 322)">Black</text>
  <line style="fill:none;stroke:black;opacity:1;stroke-width:0.5;" x1="263" x2="3036" y1="1903" y2="1903"/>
  <g transform="matrix(1 0 0 1 263 1933)">
   <path d="M9.24805 0.830078Q10.8691 0.830078 12.2949 0.214844Q13.7207-0.400391 14.8096-1.49414Q15.8984-2.58789 16.5186-4.01367Q17.1387-5.43945 17.1387-7.05078Q17.1387-8.66211 16.5186-10.0879Q15.8984-11.5137 14.8047-12.6074Q13.7109-13.7012 12.2852-14.3164Q10.8594-14.9316 9.23828-14.9316Q7.62695-14.9316 6.20117-14.3164Q4.77539-13.7012 3.69141-12.6074Q2.60742-11.5137 1.9873-10.0879Q1.36719-8.66211 1.36719-7.05078Q1.36719-5.43945 1.9873-4.01367Q2.60742-2.58789 3.69629-1.49414Q4.78516-0.400391 6.21094 0.214844Q7.63672 0.830078 9.24805 0.830078ZM9.24805-0.654297Q7.91992-0.654297 6.7627-1.14746Q5.60547-1.64062 4.73145-2.51953Q3.85742-3.39844 3.36426-4.56055Q2.87109-5.72266 2.87109-7.05078Q2.87109-8.37891 3.35938-9.54102Q3.84766-10.7031 4.72168-11.582Q5.5957-12.4609 6.75293-12.9541Q7.91016-13.4473 9.23828-13.4473Q10.5762-13.4473 11.7334-12.9541Q12.8906-12.4609 13.7695-11.582Q14.6484-10.7031 15.1465-9.54102Q15.6445-8.37891 15.6445-7.05078Q15.6445-5.72266 15.1514-4.56055Q14.6582-3.39844 13.7842-2.51953Q12.9102-1.64062 11.748-1.14746Q10.5859-0.654297 9.24805-0.654297ZM5.83984-7.04102Q5.83984-6.71875 6.04492-6.51855Q6.25-6.31836 6.5918-6.31836L8.50586-6.31836L8.50586-4.39453Q8.50586-4.0625 8.70605-3.85742Q8.90625-3.65234 9.22852-3.65234Q9.56055-3.65234 9.76562-3.85742Q9.9707-4.0625 9.9707-4.39453L9.9707-6.31836L11.8945-6.31836Q12.2266-6.31836 12.4316-6.51855Q12.6367-6.71875 12.6367-7.04102Q12.6367-7.37305 12.4316-7.57812Q12.2266-7.7832 11.8945-7.7832L9.9707-7.7832L9.9707-9.69727Q9.9707-10.0391 9.76562-10.2441Q9.56055-10.4492 9.22852-10.4492Q8.90625-10.4492 8.70605-10.2441Q8.50586-10.0391 8.50586-9.69727L8.50586-7.7832L6.5918-7.7832Q6.25-7.7832 6.04492-7.57812Q5.83984-7.37305 5.83984-7.04102Z"/>
  </g>
  <g transform="matrix(1 0 0 1 281.867 1933)">
   <path d="M11.709 2.91016Q13.75 2.91016 15.5518 2.12891Q17.3535 1.34766 18.7305-0.0292969Q20.1074-1.40625 20.8887-3.20801Q21.6699-5.00977 21.6699-7.05078Q21.6699-9.0918 20.8887-10.8936Q20.1074-12.6953 18.7305-14.0723Q17.3535-15.4492 15.5469-16.2305Q13.7402-17.0117 11.6992-17.0117Q9.6582-17.0117 7.85645-16.2305Q6.05469-15.4492 4.68262-14.0723Q3.31055-12.6953 2.5293-10.8936Q1.74805-9.0918 1.74805-7.05078Q1.74805-5.00977 2.5293-3.20801Q3.31055-1.40625 4.6875-0.0292969Q6.06445 1.34766 7.86621 2.12891Q9.66797 2.91016 11.709 2.91016ZM11.709 1.25Q9.98047 1.25 8.47656 0.605469Q6.97266-0.0390625 5.83496-1.17676Q4.69727-2.31445 4.05762-3.81836Q3.41797-5.32227 3.41797-7.05078Q3.41797-8.7793 4.05762-10.2832Q4.69727-11.7871 5.83008-12.9297Q6.96289-14.0723 8.4668-14.7119Q9.9707-15.3516 11.6992-15.3516Q13.4277-15.3516 14.9316-14.7119Q16.4355-14.0723 17.5781-12.9297Q18.7207-11.7871 19.3652-10.2832Q20.0098-8.7793 20.0098-7.05078Q20.0098-5.32227 19.3701-3.81836Q18.7305-2.31445 17.5928-1.17676Q16.4551-0.0390625 14.9463 0.605469Q13.4375 1.25 11.709 1.25ZM7.39258-7.04102Q7.39258-6.68945 7.62695-6.46484Q7.86133-6.24023 8.23242-6.24023L10.8789-6.24023L10.8789-3.57422Q10.8789-3.21289 11.1035-2.9834Q11.3281-2.75391 11.6797-2.75391Q12.0508-2.75391 12.2852-2.9834Q12.5195-3.21289 12.5195-3.57422L12.5195-6.24023L15.1758-6.24023Q15.5371-6.24023 15.7715-6.46484Q16.0059-6.68945 16.0059-7.04102Q16.0059-7.41211 15.7715-7.6416Q15.5371-7.87109 15.1758-7.87109L12.5195-7.87109L12.5195-10.5176Q12.5195-10.8984 12.2852-11.1279Q12.0508-11.3574 11.6797-11.3574Q11.3281-11.3574 11.1035-11.1279Q10.8789-10.8984 10.8789-10.5176L10.8789-7.87109L8.23242-7.87109Q7.85156-7.87109 7.62207-7.6416Q7.39258-7.41211 7.39258-7.04102Z"/>
  </g>
  <g transform="matrix(1 0 0 1 305.646 1933)">
   <path d="M14.9707 5.66406Q17.0605 5.66406 18.96 5.01465Q20.8594 4.36523 22.4512 3.19336Q24.043 2.02148 25.2197 0.429688Q26.3965-1.16211 27.0459-3.06641Q27.6953-4.9707 27.6953-7.05078Q27.6953-9.14062 27.0459-11.04Q26.3965-12.9395 25.2197-14.5312Q24.043-16.123 22.4512-17.2998Q20.8594-18.4766 18.9551-19.126Q17.0508-19.7754 14.9609-19.7754Q12.8711-19.7754 10.9717-19.126Q9.07227-18.4766 7.48535-17.2998Q5.89844-16.123 4.72168-14.5312Q3.54492-12.9395 2.90039-11.04Q2.25586-9.14062 2.25586-7.05078Q2.25586-4.9707 2.90527-3.06641Q3.55469-1.16211 4.72656 0.429688Q5.89844 2.02148 7.49023 3.19336Q9.08203 4.36523 10.9814 5.01465Q12.8809 5.66406 14.9707 5.66406ZM14.9707 3.84766Q13.1641 3.84766 11.5283 3.2959Q9.89258 2.74414 8.53516 1.74805Q7.17773 0.751953 6.17676-0.610352Q5.17578-1.97266 4.62891-3.6084Q4.08203-5.24414 4.08203-7.05078Q4.08203-8.86719 4.62891-10.5029Q5.17578-12.1387 6.17188-13.501Q7.16797-14.8633 8.52539-15.8594Q9.88281-16.8555 11.5186-17.4023Q13.1543-17.9492 14.9609-17.9492Q16.7773-17.9492 18.4131-17.4023Q20.0488-16.8555 21.4111-15.8594Q22.7734-14.8633 23.7695-13.501Q24.7656-12.1387 25.3174-10.5029Q25.8691-8.86719 25.8691-7.05078Q25.8789-5.24414 25.332-3.6084Q24.7852-1.97266 23.7842-0.610352Q22.7832 0.751953 21.4209 1.74805Q20.0586 2.74414 18.4229 3.2959Q16.7871 3.84766 14.9707 3.84766ZM9.45312-7.04102Q9.45312-6.66016 9.71191-6.41113Q9.9707-6.16211 10.3711-6.16211L14.0625-6.16211L14.0625-2.46094Q14.0625-2.06055 14.3115-1.80664Q14.5605-1.55273 14.9414-1.55273Q15.3516-1.55273 15.6055-1.80664Q15.8594-2.06055 15.8594-2.46094L15.8594-6.16211L19.5605-6.16211Q19.9609-6.16211 20.2148-6.41113Q20.4688-6.66016 20.4688-7.04102Q20.4688-7.45117 20.2148-7.70508Q19.9609-7.95898 19.5605-7.95898L15.8594-7.95898L15.8594-11.6504Q15.8594-12.0605 15.6055-12.3145Q15.3516-12.5684 14.9414-12.5684Q14.5605-12.5684 14.3115-12.3096Q14.0625-12.0508 14.0625-11.6504L14.0625-7.95898L10.3711-7.95898Q9.96094-7.95898 9.70703-7.70508Q9.45312-7.45117 9.45312-7.04102Z"/>
  </g>
  <text style="stroke:none;fill:black;font-family:sans-serif;font-size:13;font-weight:bold;" transform="matrix(1 0 0 1 263 1953)">Design Variations</text>
  <text style="stroke:none;fill:black;font-family:sans-serif;font-size:13;" transform="matrix(1 0 0 1 263 1971)">Symbols are supported in up to nine weights and three scales.</text>
  <text style="stroke:none;fill:black;font-family:sans-serif;font-size:13;" transform="matrix(1 0 0 1 263 1989)">For optimal layout with text and other symbols, vertically align</text>
  <text style="stroke:none;fill:black;font-family:sans-serif;font-size:13;" transform="matrix(1 0 0 1 263 2007)">symbols with the adjacent text.</text>
  <line style="fill:none;stroke:#00AEEF;stroke-width:0.5;opacity:1.0;" x1="776" x2="776" y1="1919" y2="1933"/>
  <g transform="matrix(1 0 0 1 776 1933)">
   <path d="M3.31055 0.15625Q3.70117 0.15625 3.91602-0.00976562Q4.13086-0.175781 4.26758-0.585938L5.52734-4.0332L11.2891-4.0332L12.5488-0.585938Q12.6855-0.175781 12.9004-0.00976562Q13.1152 0.15625 13.4961 0.15625Q13.8867 0.15625 14.1162-0.0585938Q14.3457-0.273438 14.3457-0.644531Q14.3457-0.869141 14.2383-1.17188L9.6582-13.3691Q9.48242-13.8184 9.17969-14.043Q8.87695-14.2676 8.4082-14.2676Q7.5-14.2676 7.17773-13.3789L2.59766-1.16211Q2.49023-0.859375 2.49023-0.634766Q2.49023-0.263672 2.70996-0.0537109Q2.92969 0.15625 3.31055 0.15625ZM6.00586-5.51758L8.37891-12.0898L8.42773-12.0898L10.8008-5.51758Z"/>
  </g>
  <line style="fill:none;stroke:#00AEEF;stroke-width:0.5;opacity:1.0;" x1="793.197" x2="793.197" y1="1919" y2="1933"/>
  <text style="stroke:none;fill:black;font-family:sans-serif;font-size:13;font-weight:bold;" transform="matrix(1 0 0 1 776 1953)">Margins</text>
  <text style="stroke:none;fill:black;font-family:sans-serif;font-size:13;" transform="matrix(1 0 0 1 776 1971)">Leading and trailing margins on the left and right side of each symbol</text>
  <text style="stroke:none;fill:black;font-family:sans-serif;font-size:13;" transform="matrix(1 0 0 1 776 1989)">can be adjusted by modifying the x-location of the margin guidelines.</text>
  <text style="stroke:none;fill:black;font-family:sans-serif;font-size:13;" transform="matrix(1 0 0 1 776 2007)">Modifications are automatically applied proportionally to all</text>
  <text style="stroke:none;fill:black;font-family:sans-serif;font-size:13;" transform="matrix(1 0 0 1 776 2025)">scales and weights.</text>
  <g transform="matrix(1 0 0 1 1289 1933)">
   <path d="M2.8418 1.86523L4.54102 3.57422Q5.18555 4.22852 5.90332 4.17969Q6.62109 4.13086 7.31445 3.35938L18.0078-8.42773L17.041-9.4043L6.42578 2.27539Q6.16211 2.57812 5.89355 2.61719Q5.625 2.65625 5.27344 2.30469L4.10156 1.14258Q3.75 0.791016 3.79395 0.522461Q3.83789 0.253906 4.14062-0.0195312L15.6152-10.8203L14.6387-11.7871L3.04688-0.898438Q2.30469-0.214844 2.25098 0.498047Q2.19727 1.21094 2.8418 1.86523ZM9.25781-16.3281Q8.94531-16.0254 8.90625-15.6348Q8.86719-15.2441 9.04297-14.9512Q9.21875-14.6777 9.55566-14.541Q9.89258-14.4043 10.3809-14.5215Q11.4746-14.7754 12.5977-14.7314Q13.7207-14.6875 14.7949-13.9844L14.209-12.5293Q13.9551-11.9043 14.0674-11.4404Q14.1797-10.9766 14.5801-10.5664L16.875-8.25195Q17.2363-7.88086 17.5781-7.82227Q17.9199-7.76367 18.3398-7.8418L19.4043-8.03711L20.0684-7.36328L20.0293-6.80664Q20-6.43555 20.1221-6.12305Q20.2441-5.81055 20.6055-5.44922L21.3672-4.70703Q21.7285-4.3457 22.1533-4.33105Q22.5781-4.31641 22.9297-4.66797L25.8398-7.58789Q26.1914-7.93945 26.1816-8.35449Q26.1719-8.76953 25.8105-9.13086L25.0391-9.89258Q24.6875-10.2539 24.3799-10.3857Q24.0723-10.5176 23.7109-10.4883L23.1348-10.4395L22.4902-11.0742L22.7344-12.1973Q22.832-12.6172 22.6953-12.9834Q22.5586-13.3496 22.1191-13.7891L19.9219-15.9766Q18.6719-17.2168 17.2607-17.8369Q15.8496-18.457 14.4189-18.4814Q12.9883-18.5059 11.665-17.959Q10.3418-17.4121 9.25781-16.3281ZM10.752-15.957Q11.6602-16.6211 12.7002-16.9043Q13.7402-17.1875 14.8047-17.085Q15.8691-16.9824 16.8701-16.5137Q17.8711-16.0449 18.7012-15.2051L21.1328-12.793Q21.3086-12.6172 21.3525-12.4512Q21.3965-12.2852 21.3379-12.0312L21.0156-10.5469L22.5195-9.0625L23.5059-9.12109Q23.6914-9.13086 23.7891-9.09668Q23.8867-9.0625 24.0332-8.91602L24.6094-8.33984L22.168-5.89844L21.5918-6.47461Q21.4453-6.62109 21.4062-6.71875Q21.3672-6.81641 21.377-7.01172L21.4453-7.98828L19.9512-9.47266L18.4277-9.21875Q18.1836-9.16992 18.042-9.2041Q17.9004-9.23828 17.7148-9.41406L15.7129-11.416Q15.5176-11.5918 15.4932-11.7529Q15.4688-11.9141 15.5859-12.1875L16.4648-14.2773Q15.293-15.3711 13.8281-15.791Q12.3633-16.2109 10.8398-15.7617Q10.7227-15.7324 10.6885-15.8057Q10.6543-15.8789 10.752-15.957Z"/>
  </g>
  <text style="stroke:none;fill:black;font-family:sans-serif;font-size:13;font-weight:bold;" transform="matrix(1 0 0 1 1289 1953)">Exporting</text>
  <text style="stroke:none;fill:black;font-family:sans-serif;font-size:13;" transform="matrix(1 0 0 1 1289 1971)">Symbols should be outlined when exporting to ensure the</text>
  <text style="stroke:none;fill:black;font-family:sans-serif;font-size:13;" transform="matrix(1 0 0 1 1289 1989)">design is preserved when submitting to Xcode.</text>
  <text id="template-version" style="stroke:none;fill:black;font-family:sans-serif;font-size:13;text-anchor:end;" transform="matrix(1 0 0 1 3036 1933)">Template v.2.0</text>
  <text style="stroke:none;fill:black;font-family:sans-serif;font-size:13;text-anchor:end;" transform="matrix(1 0 0 1 3036 1951)">Requires Xcode 13 or greater</text>
  <text id="descriptive-name" style="stroke:none;fill:black;font-family:sans-serif;font-size:13;text-anchor:end;" transform="matrix(1 0 0 1 3036 1969)">Generated from play</text>
  <text style="stroke:none;fill:black;font-family:sans-serif;font-size:13;text-anchor:end;" transform="matrix(1 0 0 1 3036 1987)">Typeset at 100 points</text>
  <text style="stroke:none;fill:black;font-family:sans-serif;font-size:13;" transform="matrix(1 0 0 1 263 726)">Small</text>
  <text style="stroke:none;fill:black;font-family:sans-serif;font-size:13;" transform="matrix(1 0 0 1 263 1156)">Medium</text>
  <text style="stroke:none;fill:black;font-family:sans-serif;font-size:13;" transform="matrix(1 0 0 1 263 1586)">Large</text>
 </g>
 <g id="Guides">
  <g id="H-reference" style="fill:#27AAE1;stroke:none;" transform="matrix(1 0 0 1 339 696)">
   <path d="M0.976562 0L3.66211 0L29.3457-67.1387L30.0293-67.1387L30.0293-70.459L28.125-70.459ZM11.6699-24.4629L46.9727-24.4629L46.2402-26.709L12.4512-26.709ZM55.127 0L57.7637 0L30.6152-70.459L29.4434-70.459L29.4434-67.1387Z"/>
  </g>
  <line id="Baseline-S" style="fill:none;stroke:#27AAE1;opacity:1;stroke-width:0.5;" x1="263" x2="3036" y1="696" y2="696"/>
  <line id="Capline-S" style="fill:none;stroke:#27AAE1;opacity:1;stroke-width:0.5;" x1="263" x2="3036" y1="625.541" y2="625.541"/>
  <g id="H-reference" style="fill:#27AAE1;stroke:none;" transform="matrix(1 0 0 1 339 1126)">
   <path d="M0.976562 0L3.66211 0L29.3457-67.1387L30.0293-67.1387L30.0293-70.459L28.125-70.459ZM11.6699-24.4629L46.9727-24.4629L46.2402-26.709L12.4512-26.709ZM55.127 0L57.7637 0L30.6152-70.459L29.4434-70.459L29.4434-67.1387Z"/>
  </g>
  <line id="Baseline-M" style="fill:none;stroke:#27AAE1;opacity:1;stroke-width:0.5;" x1="263" x2="3036" y1="1126" y2="1126"/>
  <line id="Capline-M" style="fill:none;stroke:#27AAE1;opacity:1;stroke-width:0.5;" x1="263" x2="3036" y1="1055.54" y2="1055.54"/>
  <g id="H-reference" style="fill:#27AAE1;stroke:none;" transform="matrix(1 0 0 1 339 1556)">
   <path d="M0.976562 0L3.66211 0L29.3457-67.1387L30.0293-67.1387L30.0293-70.459L28.125-70.459ZM11.6699-24.4629L46.9727-24.4629L46.2402-26.709L12.4512-26.709ZM55.127 0L57.7637 0L30.6152-70.459L29.4434-70.459L29.4434-67.1387Z"/>
  </g>
  <line id="Baseline-L" style="fill:none;stroke:#27AAE1;opacity:1;stroke-width:0.5;" x1="263" x2="3036" y1="1556" y2="1556"/>
  <line id="Capline-L" style="fill:none;stroke:#27AAE1;opacity:1;stroke-width:0.5;" x1="263" x2="3036" y1="1485.54" y2="1485.54"/>
  <line id="left-margin" style="fill:none;stroke:#00AEEF;stroke-width:0.5;opacity:1.0;" x1="1405.95" x2="1405.95" y1="1030.79" y2="1150.12"/>
  <line id="right-margin" style="fill:none;stroke:#00AEEF;stroke-width:0.5;opacity:1.0;" x1="1493.74" x2="1493.74" y1="1030.79" y2="1150.12"/>
 </g>
 <g id="Symbols">
  <g id="Black-L" transform="matrix(1 0 0 1 2869.75 1556)">
   <path d="M28.8086 25.8301Q31.25 25.8301 33.6426 25.0488Q36.0352 24.2676 39.1113 22.5098L115.723-21.9238Q120.459-24.6582 123.022-27.7344Q125.586-30.8105 125.586-35.2051Q125.586-39.5996 123.022-42.6758Q120.459-45.752 115.723-48.4863L39.1113-92.8711Q36.0352-94.6289 33.6426-95.4102Q31.25-96.1914 28.8086-96.1914Q23.7305-96.1914 19.8975-92.4805Q16.0645-88.7695 16.0645-82.1289L16.0645 11.7676Q16.0645 18.4082 19.8975 22.1191Q23.7305 25.8301 28.8086 25.8301ZM38.1348-1.26953Q37.6465-1.26953 37.6465-1.85547L37.6465-68.6035Q37.6465-69.1895 38.1348-69.1895Q38.2812-69.1895 38.7207-68.9453L96.4844-35.6934Q96.6309-35.5957 96.7041-35.4736Q96.7773-35.3516 96.7773-35.2051Q96.7773-35.0098 96.7041-34.9121Q96.6309-34.8145 96.4844-34.7168L38.7207-1.46484Q38.2812-1.26953 38.1348-1.26953Z"/>
  </g>
  <g id="Heavy-L" transform="matrix(1 0 0 1 2574.82 1556)">
   <path d="M27.3926 23.9746Q29.6875 23.9746 31.8604 23.2422Q34.0332 22.5098 36.8164 20.8984L112.939-23.291Q117.383-25.8301 119.678-28.5645Q121.973-31.2988 121.973-35.2051Q121.973-39.1113 119.678-41.8457Q117.383-44.5801 112.939-47.1191L36.8164-91.2598Q34.0332-92.8711 31.8604-93.6035Q29.6875-94.3359 27.3926-94.3359Q22.8027-94.3359 19.4336-90.9668Q16.0645-87.5977 16.0645-81.6406L16.0645 11.2793Q16.0645 17.2363 19.4336 20.6055Q22.8027 23.9746 27.3926 23.9746ZM35.1562 0.878906Q34.6191 0.878906 34.6191 0.195312L34.6191-70.6055Q34.6191-71.2891 35.1562-71.2891Q35.3516-71.2891 35.8398-71.0449L96.875-35.791Q97.0703-35.6934 97.1924-35.5469Q97.3145-35.4004 97.3145-35.2051Q97.3145-34.9609 97.1924-34.8389Q97.0703-34.7168 96.875-34.5703L35.8398 0.634766Q35.3516 0.878906 35.1562 0.878906Z"/>
  </g>
  <g id="Bold-L" transform="matrix(1 0 0 1 2280.09 1556)">
   <path d="M25.8789 21.875Q27.9297 21.875 29.8828 21.1914Q31.8359 20.5078 34.2773 19.1406L109.863-24.8047Q113.965-27.1484 115.967-29.5166Q117.969-31.8848 117.969-35.2051Q117.969-38.5254 115.967-40.8936Q113.965-43.2617 109.863-45.6543L34.2773-89.502Q31.8359-90.8691 29.8828-91.5527Q27.9297-92.2363 25.8789-92.2363Q21.7773-92.2363 18.9209-89.2822Q16.0645-86.3281 16.0645-81.1035L16.0645 10.7422Q16.0645 15.9668 18.9209 18.9209Q21.7773 21.875 25.8789 21.875ZM31.8359 3.27148Q31.2012 3.27148 31.2012 2.44141L31.2012-72.9004Q31.2012-73.6816 31.8359-73.6816Q32.1289-73.6816 32.6172-73.3887L97.3633-35.9375Q97.6074-35.8398 97.7783-35.6445Q97.9492-35.4492 97.9492-35.2051Q97.9492-34.9121 97.7783-34.7656Q97.6074-34.6191 97.3633-34.4727L32.6172 2.97852Q32.1289 3.27148 31.8359 3.27148Z"/>
  </g>
  <g id="Semibold-L" transform="matrix(1 0 0 1 1984.77 1556)">
   <path d="M24.7559 20.4102Q26.709 20.4102 28.5156 19.7754Q30.3223 19.1406 32.4707 17.8711L107.715-25.8301Q111.572-28.0762 113.379-30.1514Q115.186-32.2266 115.186-35.2051Q115.186-38.1348 113.379-40.2344Q111.572-42.334 107.715-44.5801L32.4707-88.2324Q30.3223-89.502 28.5156-90.1611Q26.709-90.8203 24.7559-90.8203Q21.0449-90.8203 18.5547-88.1104Q16.0645-85.4004 16.0645-80.7129L16.0645 10.3516Q16.0645 15.0391 18.5547 17.7246Q21.0449 20.4102 24.7559 20.4102ZM29.4922 4.88281Q28.8574 4.88281 28.8574 4.00391L28.8574-74.4141Q28.8574-75.293 29.4922-75.293Q29.834-75.293 30.3711-74.9512L97.7051-36.0352Q97.9492-35.8887 98.1445-35.6934Q98.3398-35.498 98.3398-35.2051Q98.3398-34.8633 98.1445-34.6924Q97.9492-34.5215 97.7051-34.3262L30.3711 4.58984Q29.834 4.88281 29.4922 4.88281Z"/>
  </g>
  <g id="Medium-L" transform="matrix(1 0 0 1 1689.08 1556)">
   <path d="M23.9746 19.2871Q25.7812 19.2871 27.4658 18.7012Q29.1504 18.1152 31.1523 16.9434L106.055-26.6113Q109.766-28.7598 111.401-30.6396Q113.037-32.5195 113.037-35.2051Q113.037-37.8418 111.401-39.7461Q109.766-41.6504 106.055-43.7988L31.1523-87.3047Q29.1504-88.4766 27.4658-89.0869Q25.7812-89.6973 23.9746-89.6973Q20.5078-89.6973 18.2861-87.207Q16.0645-84.7168 16.0645-80.4688L16.0645 10.1074Q16.0645 14.3555 18.2861 16.8213Q20.5078 19.2871 23.9746 19.2871ZM27.7832 6.15234Q27.0996 6.15234 27.0996 5.17578L27.0996-75.6348Q27.0996-76.5137 27.7832-76.5137Q28.1738-76.5137 28.7109-76.1719L97.9492-36.084Q98.1934-35.9375 98.4375-35.7178Q98.6816-35.498 98.6816-35.2051Q98.6816-34.8633 98.4375-34.668Q98.1934-34.4727 97.9492-34.2773L28.7109 5.81055Q28.1738 6.15234 27.7832 6.15234Z"/>
  </g>
  <g id="Regular-L" transform="matrix(1 0 0 1 1393.74 1556)">
   <path d="M22.9004 17.8711Q24.6094 17.8711 26.123 17.3096Q27.6367 16.748 29.3945 15.7227L103.955-27.6367Q107.422-29.6387 108.862-31.2744Q110.303-32.9102 110.303-35.2051Q110.303-37.4512 108.862-39.1113Q107.422-40.7715 103.955-42.7734L29.3945-86.084Q27.6367-87.1094 26.123-87.6953Q24.6094-88.2812 22.9004-88.2812Q19.7754-88.2812 17.9199-86.0596Q16.0645-83.8379 16.0645-80.0781L16.0645 9.7168Q16.0645 13.4766 17.9199 15.6738Q19.7754 17.8711 22.9004 17.8711ZM25.4883 7.76367Q24.7559 7.76367 24.7559 6.73828L24.7559-77.1484Q24.7559-78.125 25.4883-78.125Q25.9277-78.125 26.5137-77.7832L98.2422-36.1816Q98.5352-36.0352 98.8037-35.791Q99.0723-35.5469 99.0723-35.2051Q99.0723-34.8145 98.8037-34.5947Q98.5352-34.375 98.2422-34.1797L26.5137 7.42188Q25.9277 7.76367 25.4883 7.76367Z"/>
  </g>
  <g id="Light-L" transform="matrix(1 0 0 1 1097.81 1556)">
   <path d="M21.9238 17.5293Q23.3887 17.5293 24.6338 17.0898Q25.8789 16.6504 27.4414 15.7227L103.564-28.7598Q106.396-30.3711 107.642-31.7871Q108.887-33.2031 108.887-35.2051Q108.887-37.1582 107.642-38.5986Q106.396-40.0391 103.564-41.6016L27.4414-86.084Q25.8789-87.0117 24.6338-87.4756Q23.3887-87.9395 21.9238-87.9395Q19.2383-87.9395 17.6514-86.0596Q16.0645-84.1797 16.0645-80.9082L16.0645 10.5469Q16.0645 13.8184 17.6514 15.6738Q19.2383 17.5293 21.9238 17.5293ZM23.6816 9.96094Q22.7051 9.96094 22.7051 8.59375L22.7051-79.0039Q22.7051-80.3223 23.6816-80.3223Q24.2676-80.3223 25-79.8828L99.4629-36.5723Q99.8535-36.377 100.244-36.0352Q100.635-35.6934 100.635-35.2051Q100.635-34.668 100.244-34.3506Q99.8535-34.0332 99.4629-33.7891L25 9.52148Q24.2676 9.96094 23.6816 9.96094Z"/>
  </g>
  <g id="Thin-L" transform="matrix(1 0 0 1 802.101 1556)">
   <path d="M20.7031 17.0898Q21.7285 17.0898 22.6562 16.7725Q23.584 16.4551 24.9023 15.7227L103.076-30.2734Q104.98-31.3965 105.981-32.4951Q106.982-33.5938 106.982-35.2051Q106.982-36.7676 105.981-37.8906Q104.98-39.0137 103.076-40.0879L24.9023-86.084Q23.584-86.8652 22.6562-87.1826Q21.7285-87.5 20.7031-87.5Q18.6035-87.5 17.334-86.0596Q16.0645-84.6191 16.0645-82.0312L16.0645 11.6699Q16.0645 14.2578 17.334 15.6738Q18.6035 17.0898 20.7031 17.0898ZM21.2891 12.8418Q20.0195 12.8418 20.0195 11.0352L20.0195-81.4453Q20.0195-83.2031 21.2891-83.2031Q22.0703-83.2031 23.0469-82.6172L101.074-37.1094Q101.611-36.8164 102.173-36.3281Q102.734-35.8398 102.734-35.2051Q102.734-34.5215 102.173-34.0332Q101.611-33.5449 101.074-33.252L23.0469 12.2559Q22.0703 12.8418 21.2891 12.8418Z"/>
  </g>
  <g id="Ultralight-L" transform="matrix(1 0 0 1 505.927 1556)">
   <path d="M20.0195 16.8945Q20.8984 16.8945 21.6553 16.6504Q22.4121 16.4062 23.584 15.7227L102.832-31.0547Q104.297-31.8848 105.176-32.8369Q106.055-33.7891 106.055-35.2051Q106.055-36.5723 105.176-37.5488Q104.297-38.5254 102.832-39.3066L23.584-86.084Q22.4121-86.7676 21.6553-87.0361Q20.8984-87.3047 20.0195-87.3047Q18.2129-87.3047 17.1387-86.0596Q16.0645-84.8145 16.0645-82.5684L16.0645 12.207Q16.0645 14.4531 17.1387 15.6738Q18.2129 16.8945 20.0195 16.8945ZM20.0684 14.3555Q18.6035 14.3555 18.6035 12.2559L18.6035-82.666Q18.6035-84.7168 20.0684-84.7168Q20.9473-84.7168 22.0215-84.0332L101.855-37.4023Q102.539-37.0117 103.174-36.4746Q103.809-35.9375 103.809-35.2051Q103.809-34.4238 103.174-33.8867Q102.539-33.3496 101.855-32.959L22.0215 13.6719Q20.9473 14.3555 20.0684 14.3555Z"/>
  </g>
  <g id="Black-M" transform="matrix(1 0 0 1 2882.79 1126)">
   <path d="M23.1934 13.5742Q25.0977 13.5742 27.0752 12.9639Q29.0527 12.3535 31.6406 10.8887L91.9434-24.1211Q95.6055-26.2695 97.7783-28.8574Q99.9512-31.4453 99.9512-35.2051Q99.9512-38.916 97.7783-41.5283Q95.6055-44.1406 91.9434-46.2402L31.6406-81.25Q29.0527-82.7637 27.0752-83.3496Q25.0977-83.9355 23.1934-83.9355Q19.043-83.9355 15.7471-80.8838Q12.4512-77.832 12.4512-72.2656L12.4512 1.9043Q12.4512 7.4707 15.7471 10.5225Q19.043 13.5742 23.1934 13.5742ZM31.4941-9.96094Q31.1035-9.96094 31.1035-10.4492L31.1035-60.0098Q31.1035-60.498 31.4941-60.498Q31.5918-60.498 31.9824-60.3027L74.8047-35.5957Q74.9512-35.5469 75-35.4492Q75.0488-35.3516 75.0488-35.2051Q75.0488-35.0586 75-34.9609Q74.9512-34.8633 74.8047-34.7656L31.9824-10.1562Q31.5918-9.96094 31.4941-9.96094Z"/>
  </g>
  <g id="Heavy-M" transform="matrix(1 0 0 1 2587.67 1126)">
   <path d="M22.0215 11.8164Q23.8281 11.8164 25.6592 11.2305Q27.4902 10.6445 29.7852 9.32617L89.3066-25.1953Q92.8223-27.2461 94.7754-29.5654Q96.7285-31.8848 96.7285-35.2051Q96.7285-38.5254 94.7754-40.8447Q92.8223-43.1641 89.3066-45.166L29.7852-79.6875Q27.4902-81.0547 25.6592-81.6162Q23.8281-82.1777 22.0215-82.1777Q18.2129-82.1777 15.332-79.3945Q12.4512-76.6113 12.4512-71.6309L12.4512 1.26953Q12.4512 6.25 15.332 9.0332Q18.2129 11.8164 22.0215 11.8164ZM28.9551-8.34961Q28.5645-8.34961 28.5645-8.88672L28.5645-61.5723Q28.5645-62.1094 28.9551-62.1094Q29.1016-62.1094 29.4922-61.8652L74.9512-35.6445Q75.0977-35.5469 75.1709-35.4492Q75.2441-35.3516 75.2441-35.2051Q75.2441-35.0586 75.1709-34.9609Q75.0977-34.8633 74.9512-34.7656L29.4922-8.54492Q29.1016-8.34961 28.9551-8.34961Z"/>
  </g>
  <g id="Bold-M" transform="matrix(1 0 0 1 2292.71 1126)">
   <path d="M20.752 9.86328Q22.4609 9.86328 24.0967 9.30176Q25.7324 8.74023 27.7832 7.56836L86.377-26.416Q89.7461-28.3691 91.4307-30.3711Q93.1152-32.373 93.1152-35.2051Q93.1152-38.0371 91.4307-40.0391Q89.7461-42.041 86.377-43.9941L27.7832-77.9785Q25.7324-79.1504 24.0967-79.6875Q22.4609-80.2246 20.752-80.2246Q17.334-80.2246 14.8926-77.7588Q12.4512-75.293 12.4512-70.8984L12.4512 0.537109Q12.4512 4.88281 14.8926 7.37305Q17.334 9.86328 20.752 9.86328ZM26.1719-6.5918Q25.7324-6.5918 25.7324-7.12891L25.7324-63.3301Q25.7324-63.8672 26.1719-63.8672Q26.3184-63.8672 26.709-63.6719L75.1465-35.6934Q75.293-35.5957 75.3906-35.498Q75.4883-35.4004 75.4883-35.2051Q75.4883-35.0586 75.3906-34.9365Q75.293-34.8145 75.1465-34.7168L26.709-6.78711Q26.3184-6.5918 26.1719-6.5918Z"/>
  </g>
  <g id="Semibold-M" transform="matrix(1 0 0 1 1997.25 1126)">
   <path d="M19.873 8.49609Q21.4844 8.49609 22.998 7.95898Q24.5117 7.42188 26.3672 6.34766L84.375-27.1973Q87.5977-29.1504 89.1113-30.9082Q90.625-32.666 90.625-35.2051Q90.625-37.6953 89.1113-39.4775Q87.5977-41.2598 84.375-43.1641L26.3672-76.7578Q24.5117-77.7832 22.998-78.3203Q21.4844-78.8574 19.873-78.8574Q16.6992-78.8574 14.5752-76.5869Q12.4512-74.3164 12.4512-70.4102L12.4512 0Q12.4512 3.95508 14.5752 6.22559Q16.6992 8.49609 19.873 8.49609ZM24.2188-5.32227Q23.7305-5.32227 23.7305-5.9082L23.7305-64.5508Q23.7305-65.0879 24.2188-65.0879Q24.4141-65.0879 24.7559-64.8438L75.2441-35.6934Q75.3906-35.5957 75.5127-35.498Q75.6348-35.4004 75.6348-35.2051Q75.6348-35.0098 75.5127-34.9121Q75.3906-34.8145 75.2441-34.7168L24.7559-5.51758Q24.4141-5.32227 24.2188-5.32227Z"/>
  </g>
  <g id="Medium-M" transform="matrix(1 0 0 1 1701.46 1126)">
   <path d="M19.1895 7.4707Q20.752 7.4707 22.168 6.95801Q23.584 6.44531 25.293 5.41992L82.8125-27.832Q85.9863-29.7363 87.3535-31.3232Q88.7207-32.9102 88.7207-35.2051Q88.7207-37.4512 87.3535-39.0625Q85.9863-40.6738 82.8125-42.5293L25.293-75.8301Q23.584-76.8066 22.168-77.3193Q20.752-77.832 19.1895-77.832Q16.2598-77.832 14.3555-75.7324Q12.4512-73.6328 12.4512-70.0195L12.4512-0.390625Q12.4512 3.22266 14.3555 5.34668Q16.2598 7.4707 19.1895 7.4707ZM22.7051-4.39453Q22.2656-4.39453 22.2656-4.98047L22.2656-65.4785Q22.2656-66.0156 22.7051-66.0156Q22.9492-66.0156 23.291-65.7715L75.3418-35.6934Q75.4883-35.6445 75.6104-35.5225Q75.7324-35.4004 75.7324-35.2051Q75.7324-35.0098 75.6104-34.8877Q75.4883-34.7656 75.3418-34.668L23.291-4.58984Q22.9492-4.39453 22.7051-4.39453Z"/>
  </g>
  <g id="Regular-M" transform="matrix(1 0 0 1 1405.95 1126)">
   <path d="M18.3105 6.15234Q19.7754 6.15234 21.0938 5.63965Q22.4121 5.12695 23.877 4.24805L80.8105-28.6621Q83.8867-30.4688 85.083-31.8604Q86.2793-33.252 86.2793-35.2051Q86.2793-37.1582 85.083-38.5498Q83.8867-39.9414 80.8105-41.6992L23.877-74.6582Q22.4121-75.4883 21.0938-76.001Q19.7754-76.5137 18.3105-76.5137Q15.625-76.5137 14.0381-74.6094Q12.4512-72.7051 12.4512-69.5312L12.4512-0.878906Q12.4512 2.29492 14.0381 4.22363Q15.625 6.15234 18.3105 6.15234ZM20.8008-3.17383Q20.3125-3.17383 20.3125-3.75977L20.3125-66.6504Q20.3125-67.2363 20.8008-67.2363Q21.0449-67.2363 21.3867-66.9922L75.4395-35.7422Q75.5859-35.6445 75.7324-35.5225Q75.8789-35.4004 75.8789-35.2051Q75.8789-35.0098 75.7324-34.8877Q75.5859-34.7656 75.4395-34.668L21.3867-3.36914Q21.0449-3.17383 20.8008-3.17383Z"/>
  </g>
  <g id="Light-M" transform="matrix(1 0 0 1 1109.92 1126)">
   <path d="M17.4316 5.85938Q18.6523 5.85938 19.751 5.44434Q20.8496 5.0293 22.1191 4.24805L80.4688-29.6875Q82.9102-31.1523 83.96-32.3242Q85.0098-33.4961 85.0098-35.2051Q85.0098-36.8652 83.96-38.0615Q82.9102-39.2578 80.4688-40.6738L22.1191-74.6582Q20.8496-75.3906 19.751-75.8057Q18.6523-76.2207 17.4316-76.2207Q15.1855-76.2207 13.8184-74.6094Q12.4512-72.998 12.4512-70.2637L12.4512-0.146484Q12.4512 2.58789 13.8184 4.22363Q15.1855 5.85938 17.4316 5.85938ZM19.1895-1.2207Q18.5059-1.2207 18.5059-2.09961L18.5059-68.3105Q18.5059-69.1895 19.1895-69.1895Q19.5312-69.1895 20.0684-68.8477L76.5137-36.084Q76.7578-35.9375 77.0264-35.7178Q77.2949-35.498 77.2949-35.2051Q77.2949-34.9121 77.0264-34.6924Q76.7578-34.4727 76.5137-34.3262L20.0684-1.51367Q19.5312-1.2207 19.1895-1.2207Z"/>
  </g>
  <g id="Thin-M" transform="matrix(1 0 0 1 814.113 1126)">
   <path d="M16.3086 5.46875Q17.1875 5.46875 17.9932 5.17578Q18.7988 4.88281 19.8242 4.24805L79.9805-31.0547Q81.6895-32.0312 82.5195-32.9346Q83.3496-33.8379 83.3496-35.2051Q83.3496-36.5234 82.5195-37.4512Q81.6895-38.3789 79.9805-39.3066L19.8242-74.6582Q18.7988-75.293 17.9932-75.5615Q17.1875-75.8301 16.3086-75.8301Q14.5508-75.8301 13.501-74.6094Q12.4512-73.3887 12.4512-71.2402L12.4512 0.830078Q12.4512 2.97852 13.501 4.22363Q14.5508 5.46875 16.3086 5.46875ZM17.041 1.41602Q16.1133 1.41602 16.1133 0.0976562L16.1133-70.5078Q16.1133-71.8262 17.041-71.8262Q17.5781-71.8262 18.3105-71.3379L77.9785-36.5723Q78.3691-36.3281 78.7598-36.0107Q79.1504-35.6934 79.1504-35.2051Q79.1504-34.7168 78.7598-34.3994Q78.3691-34.082 77.9785-33.8379L18.3105 0.976562Q17.5781 1.41602 17.041 1.41602Z"/>
  </g>
  <g id="Ultralight-M" transform="matrix(1 0 0 1 517.865 1126)">
   <path d="M15.7227 5.22461Q16.4551 5.22461 17.0898 5.00488Q17.7246 4.78516 18.6523 4.24805L79.7852-31.7383Q81.0059-32.5195 81.7383-33.2764Q82.4707-34.0332 82.4707-35.2051Q82.4707-36.3281 81.7383-37.1094Q81.0059-37.8906 79.7852-38.623L18.6523-74.6582Q17.7246-75.1953 17.0898-75.415Q16.4551-75.6348 15.7227-75.6348Q14.2578-75.6348 13.3545-74.6338Q12.4512-73.6328 12.4512-71.7773L12.4512 1.36719Q12.4512 3.22266 13.3545 4.22363Q14.2578 5.22461 15.7227 5.22461ZM15.918 2.73438Q14.8438 2.73438 14.8438 1.2207L14.8438-71.6309Q14.8438-73.1445 15.918-73.1445Q16.5527-73.1445 17.3828-72.6074L78.7109-36.8164Q79.1504-36.5723 79.6143-36.1572Q80.0781-35.7422 80.0781-35.2051Q80.0781-34.668 79.6143-34.2529Q79.1504-33.8379 78.7109-33.5938L17.3828 2.19727Q16.5527 2.73438 15.918 2.73438Z"/>
  </g>
  <g id="Black-S" transform="matrix(1 0 0 1 2893.31 696)">
   <path d="M18.457 3.51562Q20.0195 3.51562 21.582 3.05176Q23.1445 2.58789 25.2441 1.36719L72.8027-26.2695Q75.6836-27.9785 77.4414-30.0781Q79.1992-32.1777 79.1992-35.2051Q79.1992-38.2324 77.4414-40.3564Q75.6836-42.4805 72.8027-44.1406L25.2441-71.7773Q23.1445-72.998 21.582-73.4619Q20.0195-73.9258 18.457-73.9258Q15.1367-73.9258 12.4512-71.46Q9.76562-68.9941 9.76562-64.502L9.76562-5.9082Q9.76562-1.41602 12.4512 1.0498Q15.1367 3.51562 18.457 3.51562ZM25.3418-15.8203Q25.0488-15.8203 25.0488-16.2109L25.0488-54.248Q25.0488-54.6387 25.3418-54.6387Q25.4395-54.6387 25.7324-54.4922L58.6426-35.5469Q58.7402-35.498 58.7891-35.4004Q58.8379-35.3027 58.8379-35.2051Q58.8379-35.1074 58.7891-35.0342Q58.7402-34.9609 58.6426-34.8633L25.7324-15.9668Q25.4395-15.8203 25.3418-15.8203Z"/>
  </g>
  <g id="Heavy-S" transform="matrix(1 0 0 1 2597.87 696)">
   <path d="M17.5781 2.05078Q19.0918 2.05078 20.5566 1.58691Q22.0215 1.12305 23.877 0.0488281L70.6055-27.0508Q73.4375-28.7109 75.0244-30.6152Q76.6113-32.5195 76.6113-35.2051Q76.6113-37.8906 75.0244-39.7949Q73.4375-41.6992 70.6055-43.3594L23.877-70.459Q22.0215-71.5332 20.5566-71.9971Q19.0918-72.4609 17.5781-72.4609Q14.502-72.4609 12.1338-70.1904Q9.76562-67.9199 9.76562-63.8672L9.76562-6.54297Q9.76562-2.49023 12.1338-0.219727Q14.502 2.05078 17.5781 2.05078ZM23.3887-14.6973Q23.0957-14.6973 23.0957-15.0879L23.0957-55.3711Q23.0957-55.7617 23.3887-55.7617Q23.4863-55.7617 23.7793-55.6152L58.6426-35.5469Q58.7402-35.498 58.7891-35.4004Q58.8379-35.3027 58.8379-35.2051Q58.8379-35.1074 58.7891-35.0342Q58.7402-34.9609 58.6426-34.8633L23.7793-14.8438Q23.4863-14.6973 23.3887-14.6973Z"/>
  </g>
  <g id="Bold-S" transform="matrix(1 0 0 1 2302.55 696)">
   <path d="M16.6016 0.439453Q18.0176 0.439453 19.3848-0.0244141Q20.752-0.488281 22.4121-1.46484L68.1641-27.9297Q70.9473-29.5898 72.3389-31.2256Q73.7305-32.8613 73.7305-35.2051Q73.7305-37.5488 72.3389-39.209Q70.9473-40.8691 68.1641-42.4805L22.4121-68.9453Q20.752-69.9219 19.3848-70.3857Q18.0176-70.8496 16.6016-70.8496Q13.8184-70.8496 11.792-68.7988Q9.76562-66.748 9.76562-63.1348L9.76562-7.32422Q9.76562-3.71094 11.792-1.63574Q13.8184 0.439453 16.6016 0.439453ZM21.2402-13.4766Q20.9473-13.4766 20.9473-13.8184L20.9473-56.6406Q20.9473-56.9824 21.2402-56.9824Q21.3379-56.9824 21.582-56.8848L58.5938-35.498Q58.6914-35.4492 58.7402-35.376Q58.7891-35.3027 58.7891-35.2051Q58.7891-35.1074 58.7402-35.0586Q58.6914-35.0098 58.5938-34.9121L21.582-13.5742Q21.3379-13.4766 21.2402-13.4766Z"/>
  </g>
  <g id="Semibold-S" transform="matrix(1 0 0 1 2006.82 696)">
   <path d="M15.918-0.732422Q17.2852-0.732422 18.5547-1.17188Q19.8242-1.61133 21.3379-2.49023L66.4551-28.5156Q69.1895-30.127 70.459-31.6162Q71.7285-33.1055 71.7285-35.2051Q71.7285-37.3047 70.459-38.7939Q69.1895-40.2832 66.4551-41.8945L21.3379-67.9199Q19.8242-68.7988 18.5547-69.2383Q17.2852-69.6777 15.918-69.6777Q13.2812-69.6777 11.5234-67.7979Q9.76562-65.918 9.76562-62.5977L9.76562-7.8125Q9.76562-4.49219 11.5234-2.6123Q13.2812-0.732422 15.918-0.732422ZM19.7266-12.5977Q19.4336-12.5977 19.4336-12.8906L19.4336-57.5195Q19.4336-57.8125 19.7266-57.8125Q19.8242-57.8125 20.0684-57.7148L58.5938-35.498Q58.6914-35.4492 58.7402-35.376Q58.7891-35.3027 58.7891-35.2051Q58.7891-35.1074 58.7402-35.0586Q58.6914-35.0098 58.5938-34.9121L20.0684-12.6953Q19.8242-12.5977 19.7266-12.5977Z"/>
  </g>
  <g id="Medium-S" transform="matrix(1 0 0 1 1710.86 696)">
   <path d="M15.4297-1.5625Q16.748-1.5625 17.9688-2.00195Q19.1895-2.44141 20.5566-3.27148L65.1367-29.0039Q67.8711-30.5664 69.0186-31.9336Q70.166-33.3008 70.166-35.2051Q70.166-37.1094 69.0186-38.4766Q67.8711-39.8438 65.1367-41.4062L20.5566-67.1387Q19.1895-67.9688 17.9688-68.4082Q16.748-68.8477 15.4297-68.8477Q12.9395-68.8477 11.3525-67.0654Q9.76562-65.2832 9.76562-62.207L9.76562-8.20312Q9.76562-5.12695 11.3525-3.34473Q12.9395-1.5625 15.4297-1.5625ZM18.5547-11.9141Q18.2617-11.9141 18.2617-12.2559L18.2617-58.1543Q18.2617-58.4961 18.5547-58.4961Q18.6523-58.4961 18.9453-58.3984L58.5449-35.4492Q58.6426-35.4004 58.6914-35.3516Q58.7402-35.3027 58.7402-35.2051Q58.7402-35.1074 58.6914-35.0586Q58.6426-35.0098 58.5449-34.9609L18.9453-12.0605Q18.6523-11.9141 18.5547-11.9141Z"/>
  </g>
  <g id="Regular-S" transform="matrix(1 0 0 1 1415.1 696)">
   <path d="M14.7461-2.68555Q16.0156-2.68555 17.1631-3.125Q18.3105-3.56445 19.5312-4.29688L63.4766-29.5898Q66.1621-31.1523 67.1875-32.3486Q68.2129-33.5449 68.2129-35.2051Q68.2129-36.8652 67.1875-38.0615Q66.1621-39.2578 63.4766-40.8203L19.5312-66.1133Q18.3105-66.8457 17.1631-67.2852Q16.0156-67.7246 14.7461-67.7246Q12.4512-67.7246 11.1084-66.0889Q9.76562-64.4531 9.76562-61.7188L9.76562-8.69141Q9.76562-5.95703 11.1084-4.32129Q12.4512-2.68555 14.7461-2.68555ZM17.0898-11.084Q16.7969-11.084 16.7969-11.377L16.7969-59.0332Q16.7969-59.3262 17.0898-59.3262Q17.1875-59.3262 17.4316-59.2285L58.5449-35.4492Q58.6426-35.4004 58.6914-35.3516Q58.7402-35.3027 58.7402-35.2051Q58.7402-35.1074 58.6914-35.0586Q58.6426-35.0098 58.5449-34.9609L17.4316-11.1816Q17.1875-11.084 17.0898-11.084Z"/>
  </g>
  <g id="Light-S" transform="matrix(1 0 0 1 1119 696)">
   <path d="M14.0137-2.92969Q15.0391-2.92969 15.9912-3.2959Q16.9434-3.66211 18.0176-4.29688L63.1836-30.5176Q65.332-31.7383 66.2109-32.7637Q67.0898-33.7891 67.0898-35.2051Q67.0898-36.6211 66.2109-37.6465Q65.332-38.6719 63.1836-39.8926L18.0176-66.1133Q16.9434-66.748 15.9912-67.1143Q15.0391-67.4805 14.0137-67.4805Q12.0605-67.4805 10.9131-66.0889Q9.76562-64.6973 9.76562-62.4023L9.76562-8.00781Q9.76562-5.71289 10.9131-4.32129Q12.0605-2.92969 14.0137-2.92969ZM15.6738-9.32617Q15.1855-9.32617 15.1855-9.91211L15.1855-60.498Q15.1855-61.084 15.6738-61.084Q15.8691-61.084 16.2598-60.8887L59.5215-35.791Q59.7168-35.6934 59.8633-35.5469Q60.0098-35.4004 60.0098-35.2051Q60.0098-35.0098 59.8633-34.8633Q59.7168-34.7168 59.5215-34.6191L16.2598-9.52148Q15.8691-9.32617 15.6738-9.32617Z"/>
  </g>
  <g id="Thin-S" transform="matrix(1 0 0 1 823.097 696)">
   <path d="M12.9883-3.27148Q13.7695-3.27148 14.4287-3.51562Q15.0879-3.75977 15.9668-4.29688L62.793-31.6895Q64.209-32.5684 64.8926-33.3496Q65.5762-34.1309 65.5762-35.2051Q65.5762-36.2793 64.8926-37.0605Q64.209-37.8418 62.793-38.7207L15.9668-66.1133Q15.0879-66.6504 14.4287-66.8945Q13.7695-67.1387 12.9883-67.1387Q11.5234-67.1387 10.6445-66.0889Q9.76562-65.0391 9.76562-63.2812L9.76562-7.12891Q9.76562-5.37109 10.6445-4.32129Q11.5234-3.27148 12.9883-3.27148ZM13.7695-6.98242Q13.0859-6.98242 13.0859-7.95898L13.0859-62.4512Q13.0859-63.4277 13.7695-63.4277Q14.1113-63.4277 14.6484-63.0371L60.791-36.1816Q61.084-36.0352 61.377-35.791Q61.6699-35.5469 61.6699-35.2051Q61.6699-34.8633 61.377-34.6191Q61.084-34.375 60.791-34.2285L14.6484-7.37305Q14.1113-6.98242 13.7695-6.98242Z"/>
  </g>
  <g id="Ultralight-S" transform="matrix(1 0 0 1 526.801 696)">
   <path d="M12.5-3.4668Q13.0859-3.4668 13.623-3.66211Q14.1602-3.85742 14.9414-4.29688L62.5488-32.3242Q63.6719-32.959 64.2334-33.6182Q64.7949-34.2773 64.7949-35.2051Q64.7949-36.1328 64.2334-36.792Q63.6719-37.4512 62.5488-38.0859L14.9414-66.1133Q14.1602-66.5527 13.623-66.748Q13.0859-66.9434 12.5-66.9434Q11.2305-66.9434 10.498-66.0889Q9.76562-65.2344 9.76562-63.7207L9.76562-6.68945Q9.76562-5.17578 10.498-4.32129Q11.2305-3.4668 12.5-3.4668ZM12.793-5.81055Q11.9629-5.81055 11.9629-6.98242L11.9629-63.4277Q11.9629-64.5996 12.793-64.5996Q13.2324-64.5996 13.8672-64.1602L61.4746-36.4258Q61.8164-36.2305 62.1582-35.9375Q62.5-35.6445 62.5-35.2051Q62.5-34.7656 62.1582-34.4727Q61.8164-34.1797 61.4746-33.9844L13.8672-6.25Q13.2324-5.81055 12.793-5.81055Z"/>
  </g>
 </g>
</svg>
