<?xml version="1.0" encoding="UTF-8"?>
<!--Generator: Apple Native CoreSVG 149-->
<!DOCTYPE svg
PUBLIC "-//W3C//DTD SVG 1.1//EN"
       "http://www.w3.org/Graphics/SVG/1.1/DTD/svg11.dtd">
<svg version="1.1" xmlns="http://www.w3.org/2000/svg" xmlns:xlink="http://www.w3.org/1999/xlink" width="3300" height="2200">
 <!--glyph: "uni10004D.medium", point size: 100.0, font version: "17.0d9e1", template writer version: "59"-->
 <g id="Notes">
  <rect height="2200" id="artboard" style="fill:white;opacity:1" width="3300" x="0" y="0"/>
  <line style="fill:none;stroke:black;opacity:1;stroke-width:0.5;" x1="263" x2="3036" y1="292" y2="292"/>
  <text style="stroke:none;fill:black;font-family:sans-serif;font-size:13;font-weight:bold;" transform="matrix(1 0 0 1 263 322)">Weight/Scale Variations</text>
  <text style="stroke:none;fill:black;font-family:sans-serif;font-size:13;text-anchor:middle;" transform="matrix(1 0 0 1 559.711 322)">Ultralight</text>
  <text style="stroke:none;fill:black;font-family:sans-serif;font-size:13;text-anchor:middle;" transform="matrix(1 0 0 1 856.422 322)">Thin</text>
  <text style="stroke:none;fill:black;font-family:sans-serif;font-size:13;text-anchor:middle;" transform="matrix(1 0 0 1 1153.13 322)">Light</text>
  <text style="stroke:none;fill:black;font-family:sans-serif;font-size:13;text-anchor:middle;" transform="matrix(1 0 0 1 1449.84 322)">Regular</text>
  <text style="stroke:none;fill:black;font-family:sans-serif;font-size:13;text-anchor:middle;" transform="matrix(1 0 0 1 1746.56 322)">Medium</text>
  <text style="stroke:none;fill:black;font-family:sans-serif;font-size:13;text-anchor:middle;" transform="matrix(1 0 0 1 2043.27 322)">Semibold</text>
  <text style="stroke:none;fill:black;font-family:sans-serif;font-size:13;text-anchor:middle;" transform="matrix(1 0 0 1 2339.98 322)">Bold</text>
  <text style="stroke:none;fill:black;font-family:sans-serif;font-size:13;text-anchor:middle;" transform="matrix(1 0 0 1 2636.69 322)">Heavy</text>
  <text style="stroke:none;fill:black;font-family:sans-serif;font-size:13;text-anchor:middle;" transform="matrix(1 0 0 1 2933.4 322)">Black</text>
  <line style="fill:none;stroke:black;opacity:1;stroke-width:0.5;" x1="263" x2="3036" y1="1903" y2="1903"/>
  <g transform="matrix(1 0 0 1 263 1933)">
   <path d="M9.24805 0.830078Q10.8691 0.830078 12.2949 0.214844Q13.7207-0.400391 14.8096-1.49414Q15.8984-2.58789 16.5186-4.01367Q17.1387-5.43945 17.1387-7.05078Q17.1387-8.66211 16.5186-10.0879Q15.8984-11.5137 14.8047-12.6074Q13.7109-13.7012 12.2852-14.3164Q10.8594-14.9316 9.23828-14.9316Q7.62695-14.9316 6.20117-14.3164Q4.77539-13.7012 3.69141-12.6074Q2.60742-11.5137 1.9873-10.0879Q1.36719-8.66211 1.36719-7.05078Q1.36719-5.43945 1.9873-4.01367Q2.60742-2.58789 3.69629-1.49414Q4.78516-0.400391 6.21094 0.214844Q7.63672 0.830078 9.24805 0.830078ZM9.24805-0.654297Q7.91992-0.654297 6.7627-1.14746Q5.60547-1.64062 4.73145-2.51953Q3.85742-3.39844 3.36426-4.56055Q2.87109-5.72266 2.87109-7.05078Q2.87109-8.37891 3.35938-9.54102Q3.84766-10.7031 4.72168-11.582Q5.5957-12.4609 6.75293-12.9541Q7.91016-13.4473 9.23828-13.4473Q10.5762-13.4473 11.7334-12.9541Q12.8906-12.4609 13.7695-11.582Q14.6484-10.7031 15.1465-9.54102Q15.6445-8.37891 15.6445-7.05078Q15.6445-5.72266 15.1514-4.56055Q14.6582-3.39844 13.7842-2.51953Q12.9102-1.64062 11.748-1.14746Q10.5859-0.654297 9.24805-0.654297ZM5.83984-7.04102Q5.83984-6.71875 6.04492-6.51855Q6.25-6.31836 6.5918-6.31836L8.50586-6.31836L8.50586-4.39453Q8.50586-4.0625 8.70605-3.85742Q8.90625-3.65234 9.22852-3.65234Q9.56055-3.65234 9.76562-3.85742Q9.9707-4.0625 9.9707-4.39453L9.9707-6.31836L11.8945-6.31836Q12.2266-6.31836 12.4316-6.51855Q12.6367-6.71875 12.6367-7.04102Q12.6367-7.37305 12.4316-7.57812Q12.2266-7.7832 11.8945-7.7832L9.9707-7.7832L9.9707-9.69727Q9.9707-10.0391 9.76562-10.2441Q9.56055-10.4492 9.22852-10.4492Q8.90625-10.4492 8.70605-10.2441Q8.50586-10.0391 8.50586-9.69727L8.50586-7.7832L6.5918-7.7832Q6.25-7.7832 6.04492-7.57812Q5.83984-7.37305 5.83984-7.04102Z"/>
  </g>
  <g transform="matrix(1 0 0 1 281.867 1933)">
   <path d="M11.709 2.91016Q13.75 2.91016 15.5518 2.12891Q17.3535 1.34766 18.7305-0.0292969Q20.1074-1.40625 20.8887-3.20801Q21.6699-5.00977 21.6699-7.05078Q21.6699-9.0918 20.8887-10.8936Q20.1074-12.6953 18.7305-14.0723Q17.3535-15.4492 15.5469-16.2305Q13.7402-17.0117 11.6992-17.0117Q9.6582-17.0117 7.85645-16.2305Q6.05469-15.4492 4.68262-14.0723Q3.31055-12.6953 2.5293-10.8936Q1.74805-9.0918 1.74805-7.05078Q1.74805-5.00977 2.5293-3.20801Q3.31055-1.40625 4.6875-0.0292969Q6.06445 1.34766 7.86621 2.12891Q9.66797 2.91016 11.709 2.91016ZM11.709 1.25Q9.98047 1.25 8.47656 0.605469Q6.97266-0.0390625 5.83496-1.17676Q4.69727-2.31445 4.05762-3.81836Q3.41797-5.32227 3.41797-7.05078Q3.41797-8.7793 4.05762-10.2832Q4.69727-11.7871 5.83008-12.9297Q6.96289-14.0723 8.4668-14.7119Q9.9707-15.3516 11.6992-15.3516Q13.4277-15.3516 14.9316-14.7119Q16.4355-14.0723 17.5781-12.9297Q18.7207-11.7871 19.3652-10.2832Q20.0098-8.7793 20.0098-7.05078Q20.0098-5.32227 19.3701-3.81836Q18.7305-2.31445 17.5928-1.17676Q16.4551-0.0390625 14.9463 0.605469Q13.4375 1.25 11.709 1.25ZM7.39258-7.04102Q7.39258-6.68945 7.62695-6.46484Q7.86133-6.24023 8.23242-6.24023L10.8789-6.24023L10.8789-3.57422Q10.8789-3.21289 11.1035-2.9834Q11.3281-2.75391 11.6797-2.75391Q12.0508-2.75391 12.2852-2.9834Q12.5195-3.21289 12.5195-3.57422L12.5195-6.24023L15.1758-6.24023Q15.5371-6.24023 15.7715-6.46484Q16.0059-6.68945 16.0059-7.04102Q16.0059-7.41211 15.7715-7.6416Q15.5371-7.87109 15.1758-7.87109L12.5195-7.87109L12.5195-10.5176Q12.5195-10.8984 12.2852-11.1279Q12.0508-11.3574 11.6797-11.3574Q11.3281-11.3574 11.1035-11.1279Q10.8789-10.8984 10.8789-10.5176L10.8789-7.87109L8.23242-7.87109Q7.85156-7.87109 7.62207-7.6416Q7.39258-7.41211 7.39258-7.04102Z"/>
  </g>
  <g transform="matrix(1 0 0 1 305.646 1933)">
   <path d="M14.9707 5.66406Q17.0605 5.66406 18.96 5.01465Q20.8594 4.36523 22.4512 3.19336Q24.043 2.02148 25.2197 0.429688Q26.3965-1.16211 27.0459-3.06641Q27.6953-4.9707 27.6953-7.05078Q27.6953-9.14062 27.0459-11.04Q26.3965-12.9395 25.2197-14.5312Q24.043-16.123 22.4512-17.2998Q20.8594-18.4766 18.9551-19.126Q17.0508-19.7754 14.9609-19.7754Q12.8711-19.7754 10.9717-19.126Q9.07227-18.4766 7.48535-17.2998Q5.89844-16.123 4.72168-14.5312Q3.54492-12.9395 2.90039-11.04Q2.25586-9.14062 2.25586-7.05078Q2.25586-4.9707 2.90527-3.06641Q3.55469-1.16211 4.72656 0.429688Q5.89844 2.02148 7.49023 3.19336Q9.08203 4.36523 10.9814 5.01465Q12.8809 5.66406 14.9707 5.66406ZM14.9707 3.84766Q13.1641 3.84766 11.5283 3.2959Q9.89258 2.74414 8.53516 1.74805Q7.17773 0.751953 6.17676-0.610352Q5.17578-1.97266 4.62891-3.6084Q4.08203-5.24414 4.08203-7.05078Q4.08203-8.86719 4.62891-10.5029Q5.17578-12.1387 6.17188-13.501Q7.16797-14.8633 8.52539-15.8594Q9.88281-16.8555 11.5186-17.4023Q13.1543-17.9492 14.9609-17.9492Q16.7773-17.9492 18.4131-17.4023Q20.0488-16.8555 21.4111-15.8594Q22.7734-14.8633 23.7695-13.501Q24.7656-12.1387 25.3174-10.5029Q25.8691-8.86719 25.8691-7.05078Q25.8789-5.24414 25.332-3.6084Q24.7852-1.97266 23.7842-0.610352Q22.7832 0.751953 21.4209 1.74805Q20.0586 2.74414 18.4229 3.2959Q16.7871 3.84766 14.9707 3.84766ZM9.45312-7.04102Q9.45312-6.66016 9.71191-6.41113Q9.9707-6.16211 10.3711-6.16211L14.0625-6.16211L14.0625-2.46094Q14.0625-2.06055 14.3115-1.80664Q14.5605-1.55273 14.9414-1.55273Q15.3516-1.55273 15.6055-1.80664Q15.8594-2.06055 15.8594-2.46094L15.8594-6.16211L19.5605-6.16211Q19.9609-6.16211 20.2148-6.41113Q20.4688-6.66016 20.4688-7.04102Q20.4688-7.45117 20.2148-7.70508Q19.9609-7.95898 19.5605-7.95898L15.8594-7.95898L15.8594-11.6504Q15.8594-12.0605 15.6055-12.3145Q15.3516-12.5684 14.9414-12.5684Q14.5605-12.5684 14.3115-12.3096Q14.0625-12.0508 14.0625-11.6504L14.0625-7.95898L10.3711-7.95898Q9.96094-7.95898 9.70703-7.70508Q9.45312-7.45117 9.45312-7.04102Z"/>
  </g>
  <text style="stroke:none;fill:black;font-family:sans-serif;font-size:13;font-weight:bold;" transform="matrix(1 0 0 1 263 1953)">Design Variations</text>
  <text style="stroke:none;fill:black;font-family:sans-serif;font-size:13;" transform="matrix(1 0 0 1 263 1971)">Symbols are supported in up to nine weights and three scales.</text>
  <text style="stroke:none;fill:black;font-family:sans-serif;font-size:13;" transform="matrix(1 0 0 1 263 1989)">For optimal layout with text and other symbols, vertically align</text>
  <text style="stroke:none;fill:black;font-family:sans-serif;font-size:13;" transform="matrix(1 0 0 1 263 2007)">symbols with the adjacent text.</text>
  <line style="fill:none;stroke:#00AEEF;stroke-width:0.5;opacity:1.0;" x1="776" x2="776" y1="1919" y2="1933"/>
  <g transform="matrix(1 0 0 1 776 1933)">
   <path d="M3.31055 0.15625Q3.70117 0.15625 3.91602-0.00976562Q4.13086-0.175781 4.26758-0.585938L5.52734-4.0332L11.2891-4.0332L12.5488-0.585938Q12.6855-0.175781 12.9004-0.00976562Q13.1152 0.15625 13.4961 0.15625Q13.8867 0.15625 14.1162-0.0585938Q14.3457-0.273438 14.3457-0.644531Q14.3457-0.869141 14.2383-1.17188L9.6582-13.3691Q9.48242-13.8184 9.17969-14.043Q8.87695-14.2676 8.4082-14.2676Q7.5-14.2676 7.17773-13.3789L2.59766-1.16211Q2.49023-0.859375 2.49023-0.634766Q2.49023-0.263672 2.70996-0.0537109Q2.92969 0.15625 3.31055 0.15625ZM6.00586-5.51758L8.37891-12.0898L8.42773-12.0898L10.8008-5.51758Z"/>
  </g>
  <line style="fill:none;stroke:#00AEEF;stroke-width:0.5;opacity:1.0;" x1="793.197" x2="793.197" y1="1919" y2="1933"/>
  <text style="stroke:none;fill:black;font-family:sans-serif;font-size:13;font-weight:bold;" transform="matrix(1 0 0 1 776 1953)">Margins</text>
  <text style="stroke:none;fill:black;font-family:sans-serif;font-size:13;" transform="matrix(1 0 0 1 776 1971)">Leading and trailing margins on the left and right side of each symbol</text>
  <text style="stroke:none;fill:black;font-family:sans-serif;font-size:13;" transform="matrix(1 0 0 1 776 1989)">can be adjusted by modifying the x-location of the margin guidelines.</text>
  <text style="stroke:none;fill:black;font-family:sans-serif;font-size:13;" transform="matrix(1 0 0 1 776 2007)">Modifications are automatically applied proportionally to all</text>
  <text style="stroke:none;fill:black;font-family:sans-serif;font-size:13;" transform="matrix(1 0 0 1 776 2025)">scales and weights.</text>
  <g transform="matrix(1 0 0 1 1289 1933)">
   <path d="M2.8418 1.86523L4.54102 3.57422Q5.18555 4.22852 5.90332 4.17969Q6.62109 4.13086 7.31445 3.35938L18.0078-8.42773L17.041-9.4043L6.42578 2.27539Q6.16211 2.57812 5.89355 2.61719Q5.625 2.65625 5.27344 2.30469L4.10156 1.14258Q3.75 0.791016 3.79395 0.522461Q3.83789 0.253906 4.14062-0.0195312L15.6152-10.8203L14.6387-11.7871L3.04688-0.898438Q2.30469-0.214844 2.25098 0.498047Q2.19727 1.21094 2.8418 1.86523ZM9.25781-16.3281Q8.94531-16.0254 8.90625-15.6348Q8.86719-15.2441 9.04297-14.9512Q9.21875-14.6777 9.55566-14.541Q9.89258-14.4043 10.3809-14.5215Q11.4746-14.7754 12.5977-14.7314Q13.7207-14.6875 14.7949-13.9844L14.209-12.5293Q13.9551-11.9043 14.0674-11.4404Q14.1797-10.9766 14.5801-10.5664L16.875-8.25195Q17.2363-7.88086 17.5781-7.82227Q17.9199-7.76367 18.3398-7.8418L19.4043-8.03711L20.0684-7.36328L20.0293-6.80664Q20-6.43555 20.1221-6.12305Q20.2441-5.81055 20.6055-5.44922L21.3672-4.70703Q21.7285-4.3457 22.1533-4.33105Q22.5781-4.31641 22.9297-4.66797L25.8398-7.58789Q26.1914-7.93945 26.1816-8.35449Q26.1719-8.76953 25.8105-9.13086L25.0391-9.89258Q24.6875-10.2539 24.3799-10.3857Q24.0723-10.5176 23.7109-10.4883L23.1348-10.4395L22.4902-11.0742L22.7344-12.1973Q22.832-12.6172 22.6953-12.9834Q22.5586-13.3496 22.1191-13.7891L19.9219-15.9766Q18.6719-17.2168 17.2607-17.8369Q15.8496-18.457 14.4189-18.4814Q12.9883-18.5059 11.665-17.959Q10.3418-17.4121 9.25781-16.3281ZM10.752-15.957Q11.6602-16.6211 12.7002-16.9043Q13.7402-17.1875 14.8047-17.085Q15.8691-16.9824 16.8701-16.5137Q17.8711-16.0449 18.7012-15.2051L21.1328-12.793Q21.3086-12.6172 21.3525-12.4512Q21.3965-12.2852 21.3379-12.0312L21.0156-10.5469L22.5195-9.0625L23.5059-9.12109Q23.6914-9.13086 23.7891-9.09668Q23.8867-9.0625 24.0332-8.91602L24.6094-8.33984L22.168-5.89844L21.5918-6.47461Q21.4453-6.62109 21.4062-6.71875Q21.3672-6.81641 21.377-7.01172L21.4453-7.98828L19.9512-9.47266L18.4277-9.21875Q18.1836-9.16992 18.042-9.2041Q17.9004-9.23828 17.7148-9.41406L15.7129-11.416Q15.5176-11.5918 15.4932-11.7529Q15.4688-11.9141 15.5859-12.1875L16.4648-14.2773Q15.293-15.3711 13.8281-15.791Q12.3633-16.2109 10.8398-15.7617Q10.7227-15.7324 10.6885-15.8057Q10.6543-15.8789 10.752-15.957Z"/>
  </g>
  <text style="stroke:none;fill:black;font-family:sans-serif;font-size:13;font-weight:bold;" transform="matrix(1 0 0 1 1289 1953)">Exporting</text>
  <text style="stroke:none;fill:black;font-family:sans-serif;font-size:13;" transform="matrix(1 0 0 1 1289 1971)">Symbols should be outlined when exporting to ensure the</text>
  <text style="stroke:none;fill:black;font-family:sans-serif;font-size:13;" transform="matrix(1 0 0 1 1289 1989)">design is preserved when submitting to Xcode.</text>
  <text id="template-version" style="stroke:none;fill:black;font-family:sans-serif;font-size:13;text-anchor:end;" transform="matrix(1 0 0 1 3036 1933)">Template v.2.0</text>
  <text style="stroke:none;fill:black;font-family:sans-serif;font-size:13;text-anchor:end;" transform="matrix(1 0 0 1 3036 1951)">Requires Xcode 13 or greater</text>
  <text id="descriptive-name" style="stroke:none;fill:black;font-family:sans-serif;font-size:13;text-anchor:end;" transform="matrix(1 0 0 1 3036 1969)">Generated from plus.circle.fill</text>
  <text style="stroke:none;fill:black;font-family:sans-serif;font-size:13;text-anchor:end;" transform="matrix(1 0 0 1 3036 1987)">Typeset at 100 points</text>
  <text style="stroke:none;fill:black;font-family:sans-serif;font-size:13;" transform="matrix(1 0 0 1 263 726)">Small</text>
  <text style="stroke:none;fill:black;font-family:sans-serif;font-size:13;" transform="matrix(1 0 0 1 263 1156)">Medium</text>
  <text style="stroke:none;fill:black;font-family:sans-serif;font-size:13;" transform="matrix(1 0 0 1 263 1586)">Large</text>
 </g>
 <g id="Guides">
  <g id="H-reference" style="fill:#27AAE1;stroke:none;" transform="matrix(1 0 0 1 339 696)">
   <path d="M0.976562 0L3.66211 0L29.3457-67.1387L30.0293-67.1387L30.0293-70.459L28.125-70.459ZM11.6699-24.4629L46.9727-24.4629L46.2402-26.709L12.4512-26.709ZM55.127 0L57.7637 0L30.6152-70.459L29.4434-70.459L29.4434-67.1387Z"/>
  </g>
  <line id="Baseline-S" style="fill:none;stroke:#27AAE1;opacity:1;stroke-width:0.5;" x1="263" x2="3036" y1="696" y2="696"/>
  <line id="Capline-S" style="fill:none;stroke:#27AAE1;opacity:1;stroke-width:0.5;" x1="263" x2="3036" y1="625.541" y2="625.541"/>
  <g id="H-reference" style="fill:#27AAE1;stroke:none;" transform="matrix(1 0 0 1 339 1126)">
   <path d="M0.976562 0L3.66211 0L29.3457-67.1387L30.0293-67.1387L30.0293-70.459L28.125-70.459ZM11.6699-24.4629L46.9727-24.4629L46.2402-26.709L12.4512-26.709ZM55.127 0L57.7637 0L30.6152-70.459L29.4434-70.459L29.4434-67.1387Z"/>
  </g>
  <line id="Baseline-M" style="fill:none;stroke:#27AAE1;opacity:1;stroke-width:0.5;" x1="263" x2="3036" y1="1126" y2="1126"/>
  <line id="Capline-M" style="fill:none;stroke:#27AAE1;opacity:1;stroke-width:0.5;" x1="263" x2="3036" y1="1055.54" y2="1055.54"/>
  <g id="H-reference" style="fill:#27AAE1;stroke:none;" transform="matrix(1 0 0 1 339 1556)">
   <path d="M0.976562 0L3.66211 0L29.3457-67.1387L30.0293-67.1387L30.0293-70.459L28.125-70.459ZM11.6699-24.4629L46.9727-24.4629L46.2402-26.709L12.4512-26.709ZM55.127 0L57.7637 0L30.6152-70.459L29.4434-70.459L29.4434-67.1387Z"/>
  </g>
  <line id="Baseline-L" style="fill:none;stroke:#27AAE1;opacity:1;stroke-width:0.5;" x1="263" x2="3036" y1="1556" y2="1556"/>
  <line id="Capline-L" style="fill:none;stroke:#27AAE1;opacity:1;stroke-width:0.5;" x1="263" x2="3036" y1="1485.54" y2="1485.54"/>
  <line id="left-margin" style="fill:none;stroke:#00AEEF;stroke-width:0.5;opacity:1.0;" x1="1391.3" x2="1391.3" y1="1030.79" y2="1150.12"/>
  <line id="right-margin" style="fill:none;stroke:#00AEEF;stroke-width:0.5;opacity:1.0;" x1="1508.39" x2="1508.39" y1="1030.79" y2="1150.12"/>
 </g>
 <g id="Symbols">
  <g id="Black-L" transform="matrix(1 0 0 1 2854.05 1556)">
   <path d="M79.3457 32.8613Q90.5762 32.8613 100.757 29.3945Q110.938 25.9277 119.458 19.6777Q127.979 13.4277 134.229 4.90723Q140.479-3.61328 143.945-13.7939Q147.412-23.9746 147.412-35.2051Q147.412-46.4355 143.945-56.6162Q140.479-66.7969 134.204-75.3174Q127.93-83.8379 119.434-90.1123Q110.938-96.3867 100.732-99.8291Q90.5273-103.271 79.2969-103.271Q68.1152-103.271 57.9102-99.8291Q47.7051-96.3867 39.209-90.1123Q30.7129-83.8379 24.4385-75.3174Q18.1641-66.7969 14.7217-56.6162Q11.2793-46.4355 11.2793-35.2051Q11.2793-23.9746 14.7217-13.7939Q18.1641-3.61328 24.4385 4.90723Q30.7129 13.4277 39.2334 19.6777Q47.7539 25.9277 57.9346 29.3945Q68.1152 32.8613 79.3457 32.8613ZM50.5859-35.2539Q50.5859-39.0625 53.0273-41.5771Q55.4688-44.0918 59.1797-44.0918L70.5566-44.0918L70.5566-55.4199Q70.5566-59.1309 73.0469-61.5967Q75.5371-64.0625 79.2969-64.0625Q83.1055-64.0625 85.6201-61.5967Q88.1348-59.1309 88.1348-55.4199L88.1348-44.0918L99.5117-44.0918Q103.174-44.0918 105.615-41.5771Q108.057-39.0625 108.057-35.2539Q108.057-31.4941 105.615-29.0039Q103.174-26.5137 99.5117-26.5137L88.1348-26.5137L88.1348-15.1367Q88.1348-11.4258 85.6201-8.98438Q83.1055-6.54297 79.2969-6.54297Q75.5371-6.54297 73.0469-8.98438Q70.5566-11.4258 70.5566-15.1367L70.5566-26.5137L59.1797-26.5137Q55.4688-26.5137 53.0273-29.0039Q50.5859-31.4941 50.5859-35.2539Z"/>
  </g>
  <g id="Heavy-L" transform="matrix(1 0 0 1 2558.39 1556)">
   <path d="M78.2715 31.7871Q89.3555 31.7871 99.3652 28.3691Q109.375 24.9512 117.749 18.7988Q126.123 12.6465 132.3 4.24805Q138.477-4.15039 141.895-14.1602Q145.312-24.1699 145.312-35.2051Q145.312-46.2402 141.895-56.2744Q138.477-66.3086 132.3-74.6826Q126.123-83.0566 117.749-89.2578Q109.375-95.459 99.3408-98.8525Q89.3066-102.246 78.2227-102.246Q67.2363-102.246 57.2021-98.8525Q47.168-95.459 38.7939-89.2578Q30.4199-83.0566 24.2432-74.6826Q18.0664-66.3086 14.6729-56.2744Q11.2793-46.2402 11.2793-35.2051Q11.2793-24.1699 14.6729-14.1602Q18.0664-4.15039 24.2432 4.24805Q30.4199 12.6465 38.8184 18.7988Q47.2168 24.9512 57.2266 28.3691Q67.2363 31.7871 78.2715 31.7871ZM49.6582-35.2539Q49.6582-38.6719 51.8311-40.8936Q54.0039-43.1152 57.3242-43.1152L70.5078-43.1152L70.5078-56.25Q70.5078-59.5703 72.7051-61.7676Q74.9023-63.9648 78.2715-63.9648Q81.6406-63.9648 83.8867-61.7676Q86.1328-59.5703 86.1328-56.25L86.1328-43.1152L99.2676-43.1152Q102.539-43.1152 104.736-40.8936Q106.934-38.6719 106.934-35.2539Q106.934-31.8848 104.736-29.6875Q102.539-27.4902 99.2676-27.4902L86.1328-27.4902L86.1328-14.3555Q86.1328-11.0352 83.8867-8.8623Q81.6406-6.68945 78.2715-6.68945Q74.9023-6.68945 72.7051-8.8623Q70.5078-11.0352 70.5078-14.3555L70.5078-27.4902L57.3242-27.4902Q54.0039-27.4902 51.8311-29.6875Q49.6582-31.8848 49.6582-35.2539Z"/>
  </g>
  <g id="Bold-L" transform="matrix(1 0 0 1 2262.85 1556)">
   <path d="M77.0996 30.6152Q87.9395 30.6152 97.7783 27.2461Q107.617 23.877 115.869 17.8223Q124.121 11.7676 130.176 3.51562Q136.23-4.73633 139.6-14.5752Q142.969-24.4141 142.969-35.2539Q142.969-46.0938 139.6-55.9326Q136.23-65.7715 130.151-73.999Q124.072-82.2266 115.845-88.3057Q107.617-94.3848 97.7539-97.7295Q87.8906-101.074 77.0508-101.074Q66.2598-101.074 56.3965-97.7295Q46.5332-94.3848 38.3301-88.3057Q30.127-82.2266 24.0479-73.999Q17.9688-65.7715 14.624-55.9326Q11.2793-46.0938 11.2793-35.2539Q11.2793-24.4141 14.624-14.5752Q17.9688-4.73633 24.0479 3.51562Q30.127 11.7676 38.3545 17.8223Q46.582 23.877 56.4209 27.2461Q66.2598 30.6152 77.0996 30.6152ZM48.584-35.2539Q48.584-38.2324 50.4639-40.1367Q52.3438-42.041 55.2734-42.041L70.4102-42.041L70.4102-57.1777Q70.4102-60.0586 72.29-61.9629Q74.1699-63.8672 77.0508-63.8672Q79.9805-63.8672 81.9092-61.9629Q83.8379-60.0586 83.8379-57.1777L83.8379-42.041L98.9746-42.041Q101.855-42.041 103.735-40.1367Q105.615-38.2324 105.615-35.2539Q105.615-32.373 103.735-30.4932Q101.855-28.6133 98.9746-28.6133L83.8379-28.6133L83.8379-13.4766Q83.8379-10.5957 81.9092-8.71582Q79.9805-6.83594 77.0508-6.83594Q74.1699-6.83594 72.29-8.71582Q70.4102-10.5957 70.4102-13.4766L70.4102-28.6133L55.2734-28.6133Q52.3926-28.6133 50.4883-30.4932Q48.584-32.373 48.584-35.2539Z"/>
  </g>
  <g id="Semibold-L" transform="matrix(1 0 0 1 1966.97 1556)">
   <path d="M76.2695 29.7852Q86.9629 29.7852 96.6797 26.4648Q106.396 23.1445 114.551 17.1631Q122.705 11.1816 128.687 3.02734Q134.668-5.12695 137.988-14.8438Q141.309-24.5605 141.309-35.2539Q141.309-45.9473 137.988-55.6641Q134.668-65.3809 128.662-73.5107Q122.656-81.6406 114.526-87.6465Q106.396-93.6523 96.6553-96.9727Q86.9141-100.293 76.2207-100.293Q65.5273-100.293 55.8105-96.9727Q46.0938-93.6523 37.9883-87.6465Q29.8828-81.6406 23.877-73.5107Q17.8711-65.3809 14.5752-55.6641Q11.2793-45.9473 11.2793-35.2539Q11.2793-24.5605 14.5996-14.8438Q17.9199-5.12695 23.9014 3.02734Q29.8828 11.1816 38.0127 17.1631Q46.1426 23.1445 55.8594 26.4648Q65.5762 29.7852 76.2695 29.7852ZM47.8516-35.2051Q47.8516-37.8418 49.5361-39.5508Q51.2207-41.2598 53.8086-41.2598L70.3125-41.2598L70.3125-57.7148Q70.3125-60.3027 71.9727-62.0117Q73.6328-63.7207 76.2207-63.7207Q78.8574-63.7207 80.542-62.0361Q82.2266-60.3516 82.2266-57.7148L82.2266-41.2598L98.7793-41.2598Q101.318-41.2598 103.003-39.5508Q104.688-37.8418 104.688-35.2051Q104.688-32.666 103.003-31.0059Q101.318-29.3457 98.7793-29.3457L82.2266-29.3457L82.2266-12.793Q82.2266-10.2051 80.542-8.54492Q78.8574-6.88477 76.2207-6.88477Q73.6328-6.88477 71.9727-8.54492Q70.3125-10.2051 70.3125-12.793L70.3125-29.3457L53.8086-29.3457Q51.2207-29.3457 49.5361-31.0059Q47.8516-32.666 47.8516-35.2051Z"/>
  </g>
  <g id="Medium-L" transform="matrix(1 0 0 1 1670.87 1556)">
   <path d="M75.6836 29.1504Q86.2305 29.1504 95.8496 25.8545Q105.469 22.5586 113.55 16.626Q121.631 10.6934 127.563 2.63672Q133.496-5.41992 136.792-15.0635Q140.088-24.707 140.088-35.2539Q140.088-45.8496 136.792-55.4688Q133.496-65.0879 127.539-73.1445Q121.582-81.2012 113.525-87.1582Q105.469-93.1152 95.8252-96.3867Q86.1816-99.6582 75.6348-99.6582Q65.0391-99.6582 55.4199-96.3867Q45.8008-93.1152 37.7441-87.1582Q29.6875-81.2012 23.7549-73.1445Q17.8223-65.0879 14.5508-55.4688Q11.2793-45.8496 11.2793-35.2539Q11.2793-24.707 14.5508-15.0635Q17.8223-5.41992 23.7549 2.63672Q29.6875 10.6934 37.7686 16.626Q45.8496 22.5586 55.4688 25.8545Q65.0879 29.1504 75.6836 29.1504ZM47.3145-35.2051Q47.3145-37.5977 48.8281-39.1357Q50.3418-40.6738 52.7344-40.6738L70.3125-40.6738L70.3125-58.2031Q70.3125-60.5469 71.8018-62.1094Q73.291-63.6719 75.6348-63.6719Q77.9785-63.6719 79.5166-62.1338Q81.0547-60.5957 81.0547-58.2031L81.0547-40.6738L98.6328-40.6738Q100.977-40.6738 102.49-39.1357Q104.004-37.5977 104.004-35.2051Q104.004-32.9102 102.49-31.4209Q100.977-29.9316 98.6328-29.9316L81.0547-29.9316L81.0547-12.3047Q81.0547-9.96094 79.5166-8.44727Q77.9785-6.93359 75.6348-6.93359Q73.291-6.93359 71.8018-8.44727Q70.3125-9.96094 70.3125-12.3047L70.3125-29.9316L52.7344-29.9316Q50.3906-29.9316 48.8525-31.4209Q47.3145-32.9102 47.3145-35.2051Z"/>
  </g>
  <g id="Regular-L" transform="matrix(1 0 0 1 1374.97 1556)">
   <path d="M74.8535 28.3203Q85.3027 28.3203 94.7998 25.0732Q104.297 21.8262 112.256 15.9668Q120.215 10.1074 126.099 2.14844Q131.982-5.81055 135.229-15.332Q138.477-24.8535 138.477-35.2539Q138.477-45.7031 135.229-55.2002Q131.982-64.6973 126.099-72.6562Q120.215-80.6152 112.256-86.499Q104.297-92.3828 94.7754-95.6299Q85.2539-98.877 74.8047-98.877Q64.3555-98.877 54.8584-95.6299Q45.3613-92.3828 37.4268-86.499Q29.4922-80.6152 23.6084-72.6562Q17.7246-64.6973 14.502-55.2002Q11.2793-45.7031 11.2793-35.2539Q11.2793-24.8535 14.5264-15.332Q17.7734-5.81055 23.6328 2.14844Q29.4922 10.1074 37.4512 15.9668Q45.4102 21.8262 54.9072 25.0732Q64.4043 28.3203 74.8535 28.3203ZM46.582-35.2051Q46.582-37.3047 47.9004-38.623Q49.2188-39.9414 51.3184-39.9414L70.2148-39.9414L70.2148-58.8379Q70.2148-60.8887 71.4844-62.2314Q72.7539-63.5742 74.8047-63.5742Q76.8555-63.5742 78.1738-62.2559Q79.4922-60.9375 79.4922-58.8379L79.4922-39.9414L98.4375-39.9414Q100.488-39.9414 101.807-38.623Q103.125-37.3047 103.125-35.2051Q103.125-33.2031 101.807-31.9336Q100.488-30.6641 98.4375-30.6641L79.4922-30.6641L79.4922-11.7188Q79.4922-9.66797 78.1738-8.34961Q76.8555-7.03125 74.8047-7.03125Q72.7539-7.03125 71.4844-8.34961Q70.2148-9.66797 70.2148-11.7188L70.2148-30.6641L51.3184-30.6641Q49.2676-30.6641 47.9248-31.9336Q46.582-33.2031 46.582-35.2051Z"/>
  </g>
  <g id="Light-L" transform="matrix(1 0 0 1 1079.18 1556)">
   <path d="M73.9258 27.3926Q84.2285 27.3926 93.6035 24.1943Q102.979 20.9961 110.815 15.2344Q118.652 9.47266 124.438 1.63574Q130.225-6.20117 133.423-15.5762Q136.621-24.9512 136.621-35.2539Q136.621-45.5566 133.423-54.9316Q130.225-64.3066 124.438-72.1436Q118.652-79.9805 110.815-85.7666Q102.979-91.5527 93.6035-94.751Q84.2285-97.9492 73.877-97.9492Q63.5742-97.9492 54.2236-94.751Q44.873-91.5527 37.0361-85.7666Q29.1992-79.9805 23.4131-72.1436Q17.627-64.3066 14.4531-54.9316Q11.2793-45.5566 11.2793-35.2539Q11.2793-24.9512 14.4775-15.5762Q17.6758-6.20117 23.4375 1.63574Q29.1992 9.47266 37.0361 15.2344Q44.873 20.9961 54.248 24.1943Q63.623 27.3926 73.9258 27.3926ZM46.2402-35.2051Q46.2402-36.7676 47.2412-37.793Q48.2422-38.8184 49.8535-38.8184L70.4102-38.8184L70.4102-59.375Q70.4102-60.9375 71.3867-61.9629Q72.3633-62.9883 73.877-62.9883Q75.3906-62.9883 76.416-61.9873Q77.4414-60.9863 77.4414-59.375L77.4414-38.8184L98.0469-38.8184Q99.6094-38.8184 100.61-37.793Q101.611-36.7676 101.611-35.2051Q101.611-33.7402 100.586-32.7637Q99.5605-31.7871 98.0469-31.7871L77.4414-31.7871L77.4414-11.1816Q77.4414-9.61914 76.416-8.61816Q75.3906-7.61719 73.877-7.61719Q72.3633-7.61719 71.3867-8.64258Q70.4102-9.66797 70.4102-11.1816L70.4102-31.7871L49.8535-31.7871Q48.291-31.7871 47.2656-32.7637Q46.2402-33.7402 46.2402-35.2051Z"/>
  </g>
  <g id="Thin-L" transform="matrix(1 0 0 1 783.693 1556)">
   <path d="M72.7051 26.1719Q82.8613 26.1719 92.041 23.0469Q101.221 19.9219 108.911 14.2822Q116.602 8.64258 122.266 0.952148Q127.93-6.73828 131.055-15.9424Q134.18-25.1465 134.18-35.2539Q134.18-45.4102 131.055-54.5898Q127.93-63.7695 122.29-71.46Q116.65-79.1504 108.936-84.8145Q101.221-90.4785 92.0166-93.6035Q82.8125-96.7285 72.7051-96.7285Q62.5488-96.7285 53.3691-93.6035Q44.1895-90.4785 36.499-84.8145Q28.8086-79.1504 23.1689-71.46Q17.5293-63.7695 14.4043-54.5898Q11.2793-45.4102 11.2793-35.2539Q11.2793-25.1465 14.4043-15.9424Q17.5293-6.73828 23.1689 0.952148Q28.8086 8.64258 36.5234 14.2822Q44.2383 19.9219 53.418 23.0469Q62.5977 26.1719 72.7051 26.1719ZM45.8008-35.2539Q45.8008-36.1816 46.3867-36.792Q46.9727-37.4023 47.9004-37.4023L70.6055-37.4023L70.6055-60.1562Q70.6055-60.9863 71.2158-61.6211Q71.8262-62.2559 72.6074-62.2559Q73.4863-62.2559 74.1211-61.6455Q74.7559-61.0352 74.7559-60.1562L74.7559-37.4023L97.5098-37.4023Q98.4375-37.4023 99.0234-36.792Q99.6094-36.1816 99.6094-35.2539Q99.6094-34.4727 98.999-33.8867Q98.3887-33.3008 97.5098-33.3008L74.7559-33.3008L74.7559-10.5469Q74.7559-9.66797 74.1211-9.05762Q73.4863-8.44727 72.6074-8.44727Q71.8262-8.44727 71.2158-9.05762Q70.6055-9.66797 70.6055-10.5469L70.6055-33.3008L47.9004-33.3008Q47.0215-33.3008 46.4111-33.8867Q45.8008-34.4727 45.8008-35.2539Z"/>
  </g>
  <g id="Ultralight-L" transform="matrix(1 0 0 1 487.592 1556)">
   <path d="M72.0703 25.5371Q82.1289 25.5371 91.2354 22.4609Q100.342 19.3848 107.935 13.7939Q115.527 8.20312 121.143 0.585938Q126.758-7.03125 129.858-16.1133Q132.959-25.1953 132.959-35.2539Q132.959-45.3125 129.858-54.4189Q126.758-63.5254 121.167-71.1182Q115.576-78.7109 107.959-84.3262Q100.342-89.9414 91.2354-93.0176Q82.1289-96.0938 72.0703-96.0938Q62.0605-96.0938 52.9541-93.0176Q43.8477-89.9414 36.2305-84.3262Q28.6133-78.7109 23.0225-71.1182Q17.4316-63.5254 14.3555-54.4189Q11.2793-45.3125 11.2793-35.2539Q11.2793-25.1953 14.3555-16.1133Q17.4316-7.03125 23.0225 0.585938Q28.6133 8.20312 36.2305 13.7939Q43.8477 19.3848 52.9541 22.4609Q62.0605 25.5371 72.0703 25.5371ZM45.6055-35.2539Q45.6055-35.791 45.9961-36.2305Q46.3867-36.6699 46.9238-36.6699L70.8008-36.6699L70.8008-60.498Q70.8008-61.0352 71.1914-61.4502Q71.582-61.8652 72.0215-61.8652Q72.5586-61.8652 72.998-61.4746Q73.4375-61.084 73.4375-60.498L73.4375-36.6699L97.2656-36.6699Q97.9004-36.6699 98.2422-36.2305Q98.584-35.791 98.584-35.2539Q98.584-34.8633 98.1934-34.4482Q97.8027-34.0332 97.2656-34.0332L73.4375-34.0332L73.4375-10.1562Q73.4375-9.61914 72.998-9.22852Q72.5586-8.83789 72.0215-8.83789Q71.582-8.83789 71.1914-9.25293Q70.8008-9.66797 70.8008-10.1562L70.8008-34.0332L46.9238-34.0332Q46.4355-34.0332 46.0205-34.4482Q45.6055-34.8633 45.6055-35.2539Z"/>
  </g>
  <g id="Black-M" transform="matrix(1 0 0 1 2871.32 1126)">
   <path d="M62.0605 18.1152Q73.0957 18.1152 82.7637 13.9648Q92.4316 9.81445 99.7559 2.46582Q107.08-4.88281 111.255-14.5264Q115.43-24.1699 115.43-35.2051Q115.43-46.2402 111.255-55.8838Q107.08-65.5273 99.7559-72.876Q92.4316-80.2246 82.7637-84.375Q73.0957-88.5254 62.0605-88.5254Q51.0742-88.5254 41.4062-84.375Q31.7383-80.2246 24.3896-72.876Q17.041-65.5273 12.8906-55.8838Q8.74023-46.2402 8.74023-35.2051Q8.74023-24.1699 12.8906-14.5264Q17.041-4.88281 24.3896 2.46582Q31.7383 9.81445 41.4062 13.9648Q51.0742 18.1152 62.0605 18.1152ZM39.8926-35.2539Q39.8926-38.3789 41.9189-40.4541Q43.9453-42.5293 46.9727-42.5293L54.7852-42.5293L54.7852-50.3906Q54.7852-53.418 56.8848-55.4199Q58.9844-57.4219 62.0605-57.4219Q65.1855-57.4219 67.2607-55.4199Q69.3359-53.418 69.3359-50.3906L69.3359-42.5293L77.1973-42.5293Q80.2246-42.5293 82.2266-40.4541Q84.2285-38.3789 84.2285-35.2539Q84.2285-32.1777 82.2266-30.0781Q80.2246-27.9785 77.1973-27.9785L69.3359-27.9785L69.3359-20.166Q69.3359-17.1387 67.2607-15.1123Q65.1855-13.0859 62.0605-13.0859Q58.9844-13.0859 56.8848-15.1123Q54.7852-17.1387 54.7852-20.166L54.7852-27.9785L46.9727-27.9785Q43.9453-27.9785 41.9189-30.0781Q39.8926-32.1777 39.8926-35.2539Z"/>
  </g>
  <g id="Heavy-M" transform="matrix(1 0 0 1 2575.43 1126)">
   <path d="M61.2305 17.2852Q72.0703 17.2852 81.5918 13.1836Q91.1133 9.08203 98.3154 1.85547Q105.518-5.37109 109.644-14.8682Q113.77-24.3652 113.77-35.2051Q113.77-46.0449 109.644-55.542Q105.518-65.0391 98.3154-72.29Q91.1133-79.541 81.5918-83.6182Q72.0703-87.6953 61.2305-87.6953Q50.4395-87.6953 40.918-83.6182Q31.3965-79.541 24.1699-72.29Q16.9434-65.0391 12.8418-55.542Q8.74023-46.0449 8.74023-35.2051Q8.74023-24.3652 12.8418-14.8682Q16.9434-5.37109 24.1699 1.85547Q31.3965 9.08203 40.918 13.1836Q50.4395 17.2852 61.2305 17.2852ZM39.0625-35.2539Q39.0625-38.0859 40.8936-39.9658Q42.7246-41.8457 45.5078-41.8457L54.6875-41.8457L54.6875-51.0742Q54.6875-53.8086 56.5674-55.6396Q58.4473-57.4707 61.2305-57.4707Q64.0625-57.4707 65.9424-55.6396Q67.8223-53.8086 67.8223-51.0742L67.8223-41.8457L77.0508-41.8457Q79.7852-41.8457 81.6162-39.9658Q83.4473-38.0859 83.4473-35.2539Q83.4473-32.4707 81.6162-30.5908Q79.7852-28.7109 77.0508-28.7109L67.8223-28.7109L67.8223-19.4824Q67.8223-16.748 65.9424-14.917Q64.0625-13.0859 61.2305-13.0859Q58.4473-13.0859 56.5674-14.917Q54.6875-16.748 54.6875-19.4824L54.6875-28.7109L45.5078-28.7109Q42.7246-28.7109 40.8936-30.5908Q39.0625-32.4707 39.0625-35.2539Z"/>
  </g>
  <g id="Bold-M" transform="matrix(1 0 0 1 2279.65 1126)">
   <path d="M60.3027 16.3574Q70.9473 16.3574 80.2734 12.3291Q89.5996 8.30078 96.7041 1.17188Q103.809-5.95703 107.861-15.2832Q111.914-24.6094 111.914-35.2539Q111.914-45.8496 107.861-55.1758Q103.809-64.502 96.7041-71.6309Q89.5996-78.7598 80.249-82.7881Q70.8984-86.8164 60.3027-86.8164Q49.707-86.8164 40.3564-82.7881Q31.0059-78.7598 23.9014-71.6309Q16.7969-64.502 12.7686-55.1758Q8.74023-45.8496 8.74023-35.2539Q8.74023-24.6094 12.7686-15.2832Q16.7969-5.95703 23.9258 1.17188Q31.0547 8.30078 40.3809 12.3291Q49.707 16.3574 60.3027 16.3574ZM38.0859-35.2539Q38.0859-37.793 39.7217-39.4287Q41.3574-41.0645 43.7988-41.0645L54.541-41.0645L54.541-51.8066Q54.541-54.2969 56.1768-55.9082Q57.8125-57.5195 60.2539-57.5195Q62.793-57.5195 64.4287-55.9082Q66.0645-54.2969 66.0645-51.8066L66.0645-41.0645L76.8555-41.0645Q79.2969-41.0645 80.9082-39.4287Q82.5195-37.793 82.5195-35.2539Q82.5195-32.8125 80.9082-31.1768Q79.2969-29.541 76.8555-29.541L66.0645-29.541L66.0645-18.75Q66.0645-16.3086 64.4287-14.6973Q62.793-13.0859 60.2539-13.0859Q57.8125-13.0859 56.1768-14.6973Q54.541-16.3086 54.541-18.75L54.541-29.541L43.7988-29.541Q41.3574-29.541 39.7217-31.1768Q38.0859-32.8125 38.0859-35.2539Z"/>
  </g>
  <g id="Semibold-M" transform="matrix(1 0 0 1 1983.6 1126)">
   <path d="M59.668 15.6738Q70.1172 15.6738 79.3457 11.6943Q88.5742 7.71484 95.6055 0.683594Q102.637-6.34766 106.616-15.5518Q110.596-24.7559 110.596-35.2539Q110.596-45.7031 106.616-54.9072Q102.637-64.1113 95.6055-71.1426Q88.5742-78.1738 79.3457-82.1777Q70.1172-86.1816 59.6191-86.1816Q49.1699-86.1816 39.9658-82.1777Q30.7617-78.1738 23.7305-71.1426Q16.6992-64.1113 12.7197-54.9072Q8.74023-45.7031 8.74023-35.2539Q8.74023-24.7559 12.7197-15.5518Q16.6992-6.34766 23.7305 0.683594Q30.7617 7.71484 39.9902 11.6943Q49.2188 15.6738 59.668 15.6738ZM37.4512-35.2051Q37.4512-37.5 38.916-38.9648Q40.3809-40.4297 42.6758-40.4297L54.4922-40.4297L54.4922-52.2949Q54.4922-54.541 55.9326-56.0059Q57.373-57.4707 59.6191-57.4707Q61.9629-57.4707 63.4277-56.0303Q64.8926-54.5898 64.8926-52.2949L64.8926-40.4297L76.7578-40.4297Q79.0039-40.4297 80.4443-38.9648Q81.8848-37.5 81.8848-35.2051Q81.8848-32.959 80.4443-31.5186Q79.0039-30.0781 76.7578-30.0781L64.8926-30.0781L64.8926-18.1641Q64.8926-15.9668 63.4277-14.502Q61.9629-13.0371 59.6191-13.0371Q57.373-13.0371 55.9326-14.502Q54.4922-15.9668 54.4922-18.1641L54.4922-30.0781L42.6758-30.0781Q40.3809-30.0781 38.916-31.5186Q37.4512-32.959 37.4512-35.2051Z"/>
  </g>
  <g id="Medium-M" transform="matrix(1 0 0 1 1687.38 1126)">
   <path d="M59.1797 15.1855Q69.5312 15.1855 78.6621 11.2305Q87.793 7.27539 94.751 0.317383Q101.709-6.64062 105.664-15.7715Q109.619-24.9023 109.619-35.2539Q109.619-45.6055 105.664-54.7363Q101.709-63.8672 94.751-70.8252Q87.793-77.7832 78.6377-81.7383Q69.4824-85.6934 59.1309-85.6934Q48.7793-85.6934 39.6484-81.7383Q30.5176-77.7832 23.584-70.8252Q16.6504-63.8672 12.6953-54.7363Q8.74023-45.6055 8.74023-35.2539Q8.74023-24.9023 12.6953-15.7715Q16.6504-6.64062 23.6084 0.317383Q30.5664 7.27539 39.6973 11.2305Q48.8281 15.1855 59.1797 15.1855ZM36.9141-35.2051Q36.9141-37.3047 38.2812-38.6719Q39.6484-40.0391 41.748-40.0391L54.3457-40.0391L54.3457-52.6855Q54.3457-54.7852 55.6885-56.1279Q57.0312-57.4707 59.082-57.4707Q61.2305-57.4707 62.5977-56.1523Q63.9648-54.834 63.9648-52.6855L63.9648-40.0391L76.6113-40.0391Q78.7109-40.0391 80.0293-38.6719Q81.3477-37.3047 81.3477-35.2051Q81.3477-33.1543 80.0293-31.8115Q78.7109-30.4688 76.6113-30.4688L63.9648-30.4688L63.9648-17.7734Q63.9648-15.7227 62.5977-14.3799Q61.2305-13.0371 59.082-13.0371Q57.0312-13.0371 55.6885-14.3799Q54.3457-15.7227 54.3457-17.7734L54.3457-30.4688L41.748-30.4688Q39.6484-30.4688 38.2812-31.8115Q36.9141-33.1543 36.9141-35.2051Z"/>
  </g>
  <g id="Regular-M" transform="matrix(1 0 0 1 1391.3 1126)">
   <path d="M58.5449 14.5508Q68.75 14.5508 77.7588 10.6445Q86.7676 6.73828 93.6523-0.146484Q100.537-7.03125 104.443-16.04Q108.35-25.0488 108.35-35.2539Q108.35-45.459 104.443-54.4678Q100.537-63.4766 93.6523-70.3613Q86.7676-77.2461 77.7344-81.1523Q68.7012-85.0586 58.4961-85.0586Q48.291-85.0586 39.2822-81.1523Q30.2734-77.2461 23.4131-70.3613Q16.5527-63.4766 12.6465-54.4678Q8.74023-45.459 8.74023-35.2539Q8.74023-25.0488 12.6465-16.04Q16.5527-7.03125 23.4375-0.146484Q30.3223 6.73828 39.3311 10.6445Q48.3398 14.5508 58.5449 14.5508ZM36.2793-35.2051Q36.2793-37.1094 37.5-38.3057Q38.7207-39.502 40.625-39.502L54.2969-39.502L54.2969-53.1738Q54.2969-55.0781 55.4443-56.2988Q56.5918-57.5195 58.4473-57.5195Q60.4004-57.5195 61.5967-56.3232Q62.793-55.127 62.793-53.1738L62.793-39.502L76.5137-39.502Q78.3691-39.502 79.5654-38.3057Q80.7617-37.1094 80.7617-35.2051Q80.7617-33.3496 79.5654-32.2021Q78.3691-31.0547 76.5137-31.0547L62.793-31.0547L62.793-17.2852Q62.793-15.4297 61.5967-14.2334Q60.4004-13.0371 58.4473-13.0371Q56.5918-13.0371 55.4443-14.2334Q54.2969-15.4297 54.2969-17.2852L54.2969-31.0547L40.625-31.0547Q38.7207-31.0547 37.5-32.2021Q36.2793-33.3496 36.2793-35.2051Z"/>
  </g>
  <g id="Light-M" transform="matrix(1 0 0 1 1095.42 1126)">
   <path d="M57.7148 13.7207Q67.7734 13.7207 76.6357 9.8877Q85.498 6.05469 92.2607-0.708008Q99.0234-7.4707 102.856-16.333Q106.689-25.1953 106.689-35.2539Q106.689-45.3125 102.856-54.1748Q99.0234-63.0371 92.2607-69.7998Q85.498-76.5625 76.6113-80.3955Q67.7246-84.2285 57.666-84.2285Q47.6074-84.2285 38.7451-80.3955Q29.8828-76.5625 23.1445-69.7998Q16.4062-63.0371 12.5732-54.1748Q8.74023-45.3125 8.74023-35.2539Q8.74023-25.1953 12.5732-16.333Q16.4062-7.4707 23.1689-0.708008Q29.9316 6.05469 38.7939 9.8877Q47.6562 13.7207 57.7148 13.7207ZM35.9863-35.2051Q35.9863-36.6699 36.9141-37.5977Q37.8418-38.5254 39.3066-38.5254L54.4922-38.5254L54.4922-53.6621Q54.4922-55.127 55.3711-56.0547Q56.25-56.9824 57.6172-56.9824Q59.1309-56.9824 60.0586-56.0791Q60.9863-55.1758 60.9863-53.6621L60.9863-38.5254L76.1719-38.5254Q77.5879-38.5254 78.4912-37.5977Q79.3945-36.6699 79.3945-35.2051Q79.3945-33.8379 78.4668-32.9346Q77.5391-32.0312 76.1719-32.0312L60.9863-32.0312L60.9863-16.7969Q60.9863-15.3809 60.0586-14.4775Q59.1309-13.5742 57.6172-13.5742Q56.25-13.5742 55.3711-14.502Q54.4922-15.4297 54.4922-16.7969L54.4922-32.0312L39.3066-32.0312Q37.8906-32.0312 36.9385-32.9346Q35.9863-33.8379 35.9863-35.2051Z"/>
  </g>
  <g id="Thin-M" transform="matrix(1 0 0 1 799.782 1126)">
   <path d="M56.5918 12.5977Q66.5039 12.5977 75.1709 8.88672Q83.8379 5.17578 90.4297-1.44043Q97.0215-8.05664 100.781-16.7236Q104.541-25.3906 104.541-35.2539Q104.541-45.1172 100.781-53.7842Q97.0215-62.4512 90.4297-69.0674Q83.8379-75.6836 75.1709-79.3945Q66.5039-83.1055 56.5918-83.1055Q46.7285-83.1055 38.0615-79.3945Q29.3945-75.6836 22.8271-69.0674Q16.2598-62.4512 12.5-53.7842Q8.74023-45.1172 8.74023-35.2539Q8.74023-25.3906 12.4756-16.7236Q16.2109-8.05664 22.8027-1.44043Q29.3945 5.17578 38.0859 8.88672Q46.7773 12.5977 56.5918 12.5977ZM35.5957-35.2539Q35.5957-36.084 36.1572-36.6455Q36.7188-37.207 37.5488-37.207L54.6875-37.207L54.6875-54.3945Q54.6875-55.1758 55.249-55.7617Q55.8105-56.3477 56.543-56.3477Q57.373-56.3477 57.959-55.7861Q58.5449-55.2246 58.5449-54.3945L58.5449-37.207L75.6836-37.207Q76.5137-37.207 77.0752-36.6455Q77.6367-36.084 77.6367-35.2539Q77.6367-34.4727 77.0752-33.9355Q76.5137-33.3984 75.6836-33.3984L58.5449-33.3984L58.5449-16.2598Q58.5449-15.4297 57.959-14.8682Q57.373-14.3066 56.543-14.3066Q55.8105-14.3066 55.249-14.8682Q54.6875-15.4297 54.6875-16.2598L54.6875-33.3984L37.5488-33.3984Q36.7188-33.3984 36.1572-33.9355Q35.5957-34.4727 35.5957-35.2539Z"/>
  </g>
  <g id="Ultralight-M" transform="matrix(1 0 0 1 503.632 1126)">
   <path d="M56.0547 12.0605Q65.8203 12.0605 74.3896 8.37402Q82.959 4.6875 89.4775-1.83105Q95.9961-8.34961 99.707-16.9189Q103.418-25.4883 103.418-35.2539Q103.418-45.0195 99.707-53.5889Q95.9961-62.1582 89.4775-68.6768Q82.959-75.1953 74.3896-78.8818Q65.8203-82.5684 56.0547-82.5684Q46.2891-82.5684 37.7197-78.8818Q29.1504-75.1953 22.6562-68.6768Q16.1621-62.1582 12.4512-53.5889Q8.74023-45.0195 8.74023-35.2539Q8.74023-25.4883 12.4268-16.9189Q16.1133-8.34961 22.6318-1.83105Q29.1504 4.6875 37.7197 8.37402Q46.2891 12.0605 56.0547 12.0605ZM35.4004-35.2539Q35.4004-35.791 35.7666-36.1816Q36.1328-36.5723 36.6699-36.5723L54.834-36.5723L54.834-54.7363Q54.834-55.2246 55.2002-55.5908Q55.5664-55.957 55.957-55.957Q56.543-55.957 56.9336-55.6152Q57.3242-55.2734 57.3242-54.7363L57.3242-36.5723L75.4395-36.5723Q75.9766-36.5723 76.3428-36.1816Q76.709-35.791 76.709-35.2539Q76.709-34.8145 76.3184-34.4238Q75.9277-34.0332 75.4395-34.0332L57.3242-34.0332L57.3242-15.918Q57.3242-15.3809 56.9336-15.0391Q56.543-14.6973 55.957-14.6973Q55.5664-14.6973 55.2002-15.0635Q54.834-15.4297 54.834-15.918L54.834-34.0332L36.6699-34.0332Q36.1816-34.0332 35.791-34.4238Q35.4004-34.8145 35.4004-35.2539Z"/>
  </g>
  <g id="Black-S" transform="matrix(1 0 0 1 2884.57 696)">
   <path d="M48.8281 6.78711Q57.5195 6.78711 65.1123 3.51562Q72.7051 0.244141 78.4912-5.54199Q84.2773-11.3281 87.5488-18.9209Q90.8203-26.5137 90.8203-35.2051Q90.8203-43.8965 87.5488-51.4893Q84.2773-59.082 78.4912-64.8682Q72.7051-70.6543 65.1123-73.9258Q57.5195-77.1973 48.8281-77.1973Q40.1367-77.1973 32.5439-73.9258Q24.9512-70.6543 19.165-64.8682Q13.3789-59.082 10.1074-51.4893Q6.83594-43.8965 6.83594-35.2051Q6.83594-26.5137 10.1074-18.9209Q13.3789-11.3281 19.165-5.54199Q24.9512 0.244141 32.5439 3.51562Q40.1367 6.78711 48.8281 6.78711ZM31.4941-35.2539Q31.4941-37.7441 33.1299-39.4287Q34.7656-41.1133 37.1582-41.1133L42.9688-41.1133L42.9688-46.9238Q42.9688-49.3652 44.6533-50.9766Q46.3379-52.5879 48.8281-52.5879Q51.3184-52.5879 53.0029-50.9766Q54.6875-49.3652 54.6875-46.9238L54.6875-41.1133L60.498-41.1133Q62.9395-41.1133 64.5508-39.4287Q66.1621-37.7441 66.1621-35.2539Q66.1621-32.7637 64.5508-31.0791Q62.9395-29.3945 60.498-29.3945L54.6875-29.3945L54.6875-23.584Q54.6875-21.1914 53.0029-19.5557Q51.3184-17.9199 48.8281-17.9199Q46.3379-17.9199 44.6533-19.5557Q42.9688-21.1914 42.9688-23.584L42.9688-29.3945L37.1582-29.3945Q34.7656-29.3945 33.1299-31.0791Q31.4941-32.7637 31.4941-35.2539Z"/>
  </g>
  <g id="Heavy-S" transform="matrix(1 0 0 1 2588.47 696)">
   <path d="M48.1934 6.15234Q56.7871 6.15234 64.2578 2.92969Q71.7285-0.292969 77.4414-6.00586Q83.1543-11.7188 86.377-19.1895Q89.5996-26.6602 89.5996-35.2051Q89.5996-43.75 86.377-51.2451Q83.1543-58.7402 77.4414-64.4531Q71.7285-70.166 64.2334-73.3887Q56.7383-76.6113 48.1934-76.6113Q39.6484-76.6113 32.1777-73.3887Q24.707-70.166 18.9941-64.4531Q13.2812-58.7402 10.0586-51.2451Q6.83594-43.75 6.83594-35.2051Q6.83594-26.6602 10.0586-19.1895Q13.2812-11.7188 18.9941-6.00586Q24.707-0.292969 32.2021 2.92969Q39.6973 6.15234 48.1934 6.15234ZM30.8105-35.2539Q30.8105-37.5488 32.3242-39.0869Q33.8379-40.625 36.084-40.625L42.8711-40.625L42.8711-47.4609Q42.8711-49.707 44.3848-51.1963Q45.8984-52.6855 48.1934-52.6855Q50.5371-52.6855 52.0752-51.1963Q53.6133-49.707 53.6133-47.4609L53.6133-40.625L60.4004-40.625Q62.6465-40.625 64.1602-39.0869Q65.6738-37.5488 65.6738-35.2539Q65.6738-32.959 64.1602-31.4209Q62.6465-29.8828 60.4004-29.8828L53.6133-29.8828L53.6133-23.0957Q53.6133-20.8496 52.0752-19.3604Q50.5371-17.8711 48.1934-17.8711Q45.8984-17.8711 44.3848-19.3604Q42.8711-20.8496 42.8711-23.0957L42.8711-29.8828L36.084-29.8828Q33.8379-29.8828 32.3242-31.4209Q30.8105-32.959 30.8105-35.2539Z"/>
  </g>
  <g id="Bold-S" transform="matrix(1 0 0 1 2292.42 696)">
   <path d="M47.5586 5.46875Q55.957 5.46875 63.3057 2.29492Q70.6543-0.878906 76.2695-6.51855Q81.8848-12.1582 85.083-19.5068Q88.2812-26.8555 88.2812-35.2539Q88.2812-43.6035 85.083-50.9766Q81.8848-58.3496 76.2695-63.9648Q70.6543-69.5801 63.2812-72.7539Q55.9082-75.9277 47.5098-75.9277Q39.1602-75.9277 31.7871-72.7539Q24.4141-69.5801 18.8232-63.9648Q13.2324-58.3496 10.0342-50.9766Q6.83594-43.6035 6.83594-35.2539Q6.83594-26.8555 10.0342-19.5068Q13.2324-12.1582 18.8477-6.51855Q24.4629-0.878906 31.8115 2.29492Q39.1602 5.46875 47.5586 5.46875ZM30.0293-35.2539Q30.0293-37.3535 31.3965-38.7451Q32.7637-40.1367 34.8145-40.1367L42.7246-40.1367L42.7246-48.0469Q42.7246-50.0977 44.0918-51.4404Q45.459-52.7832 47.5098-52.7832Q49.6582-52.7832 51.0254-51.4404Q52.3926-50.0977 52.3926-48.0469L52.3926-40.1367L60.3027-40.1367Q62.3535-40.1367 63.7207-38.7451Q65.0879-37.3535 65.0879-35.2539Q65.0879-33.2031 63.7207-31.8359Q62.3535-30.4688 60.3027-30.4688L52.3926-30.4688L52.3926-22.5098Q52.3926-20.5078 51.0254-19.1406Q49.6582-17.7734 47.5098-17.7734Q45.459-17.7734 44.0918-19.1406Q42.7246-20.5078 42.7246-22.5098L42.7246-30.4688L34.8145-30.4688Q32.7637-30.4688 31.3965-31.8359Q30.0293-33.2031 30.0293-35.2539Z"/>
  </g>
  <g id="Semibold-S" transform="matrix(1 0 0 1 1996.2 696)">
   <path d="M47.0703 4.98047Q55.3711 4.98047 62.6465 1.85547Q69.9219-1.26953 75.4639-6.86035Q81.0059-12.4512 84.1553-19.7266Q87.3047-27.002 87.3047-35.2539Q87.3047-43.5059 84.1553-50.7812Q81.0059-58.0566 75.4395-63.623Q69.873-69.1895 62.5977-72.3389Q55.3223-75.4883 47.0215-75.4883Q38.7695-75.4883 31.4941-72.3389Q24.2188-69.1895 18.6768-63.623Q13.1348-58.0566 9.98535-50.7812Q6.83594-43.5059 6.83594-35.2539Q6.83594-27.002 9.98535-19.7266Q13.1348-12.4512 18.7012-6.86035Q24.2676-1.26953 31.543 1.85547Q38.8184 4.98047 47.0703 4.98047ZM29.4922-35.2051Q29.4922-37.1582 30.7373-38.4277Q31.9824-39.6973 33.9355-39.6973L42.5781-39.6973L42.5781-48.3887Q42.5781-50.293 43.8477-51.5381Q45.1172-52.7832 47.0215-52.7832Q49.0234-52.7832 50.2686-51.5381Q51.5137-50.293 51.5137-48.3887L51.5137-39.6973L60.2051-39.6973Q62.1582-39.6973 63.4033-38.4277Q64.6484-37.1582 64.6484-35.2051Q64.6484-33.3008 63.4033-32.0312Q62.1582-30.7617 60.2051-30.7617L51.5137-30.7617L51.5137-22.0703Q51.5137-20.166 50.2686-18.9209Q49.0234-17.6758 47.0215-17.6758Q45.1172-17.6758 43.8477-18.9209Q42.5781-20.166 42.5781-22.0703L42.5781-30.7617L33.9355-30.7617Q31.9824-30.7617 30.7373-32.0312Q29.4922-33.3008 29.4922-35.2051Z"/>
  </g>
  <g id="Medium-S" transform="matrix(1 0 0 1 1699.83 696)">
   <path d="M46.7285 4.63867Q54.9316 4.63867 62.1338 1.51367Q69.3359-1.61133 74.8535-7.12891Q80.3711-12.6465 83.4961-19.8486Q86.6211-27.0508 86.6211-35.2539Q86.6211-43.4082 83.4961-50.6348Q80.3711-57.8613 74.8291-63.3789Q69.2871-68.8965 62.085-71.9971Q54.8828-75.0977 46.6797-75.0977Q38.4766-75.0977 31.2744-71.9971Q24.0723-68.8965 18.5791-63.3789Q13.0859-57.8613 9.96094-50.6348Q6.83594-43.4082 6.83594-35.2539Q6.83594-27.0508 9.96094-19.8486Q13.0859-12.6465 18.6035-7.12891Q24.1211-1.61133 31.3232 1.51367Q38.5254 4.63867 46.7285 4.63867ZM29.1016-35.2051Q29.1016-37.0605 30.2734-38.2324Q31.4453-39.4043 33.3008-39.4043L42.5293-39.4043L42.5293-48.6816Q42.5293-50.5371 43.7012-51.709Q44.873-52.8809 46.6797-52.8809Q48.584-52.8809 49.7314-51.709Q50.8789-50.5371 50.8789-48.6816L50.8789-39.4043L60.2051-39.4043Q62.0117-39.4043 63.1836-38.2324Q64.3555-37.0605 64.3555-35.2051Q64.3555-33.3984 63.1836-32.2266Q62.0117-31.0547 60.2051-31.0547L50.8789-31.0547L50.8789-21.7773Q50.8789-19.9707 49.7314-18.7988Q48.584-17.627 46.6797-17.627Q44.873-17.627 43.7012-18.7988Q42.5293-19.9707 42.5293-21.7773L42.5293-31.0547L33.3008-31.0547Q31.4453-31.0547 30.2734-32.2266Q29.1016-33.3984 29.1016-35.2051Z"/>
  </g>
  <g id="Regular-S" transform="matrix(1 0 0 1 1403.58 696)">
   <path d="M46.2402 4.15039Q54.3457 4.15039 61.4746 1.07422Q68.6035-2.00195 74.0479-7.4707Q79.4922-12.9395 82.5928-20.0684Q85.6934-27.1973 85.6934-35.2539Q85.6934-43.3105 82.5928-50.4395Q79.4922-57.5684 74.0234-63.0371Q68.5547-68.5059 61.4258-71.582Q54.2969-74.6582 46.1914-74.6582Q38.1348-74.6582 31.0059-71.582Q23.877-68.5059 18.457-63.0371Q13.0371-57.5684 9.93652-50.4395Q6.83594-43.3105 6.83594-35.2539Q6.83594-27.1973 9.93652-20.0684Q13.0371-12.9395 18.4814-7.4707Q23.9258-2.00195 31.0547 1.07422Q38.1836 4.15039 46.2402 4.15039ZM28.5645-35.2051Q28.5645-36.9141 29.6387-37.9883Q30.7129-39.0625 32.4707-39.0625L42.4316-39.0625L42.4316-49.0723Q42.4316-50.7812 43.4814-51.8555Q44.5312-52.9297 46.1914-52.9297Q47.9492-52.9297 48.999-51.8555Q50.0488-50.7812 50.0488-49.0723L50.0488-39.0625L60.1074-39.0625Q61.7676-39.0625 62.8662-37.9883Q63.9648-36.9141 63.9648-35.2051Q63.9648-33.5449 62.8662-32.4951Q61.7676-31.4453 60.1074-31.4453L50.0488-31.4453L50.0488-21.3867Q50.0488-19.7266 48.999-18.6523Q47.9492-17.5781 46.1914-17.5781Q44.5312-17.5781 43.4814-18.6523Q42.4316-19.7266 42.4316-21.3867L42.4316-31.4453L32.4707-31.4453Q30.7129-31.4453 29.6387-32.4951Q28.5645-33.5449 28.5645-35.2051Z"/>
  </g>
  <g id="Light-S" transform="matrix(1 0 0 1 1107.6 696)">
   <path d="M45.5078 3.41797Q53.4668 3.41797 60.4736 0.415039Q67.4805-2.58789 72.8271-7.95898Q78.1738-13.3301 81.2012-20.3125Q84.2285-27.2949 84.2285-35.2539Q84.2285-43.2129 81.2012-50.1953Q78.1738-57.1777 72.8027-62.5488Q67.4316-67.9199 60.4492-70.9229Q53.4668-73.9258 45.459-73.9258Q37.5488-73.9258 30.542-70.9229Q23.5352-67.9199 18.2129-62.5488Q12.8906-57.1777 9.86328-50.1953Q6.83594-43.2129 6.83594-35.2539Q6.83594-27.2949 9.86328-20.3125Q12.8906-13.3301 18.2373-7.95898Q23.584-2.58789 30.5908 0.415039Q37.5977 3.41797 45.5078 3.41797ZM28.3203-35.2051Q28.3203-36.5234 29.1504-37.3535Q29.9805-38.1836 31.2988-38.1836L42.627-38.1836L42.627-49.5117Q42.627-50.7812 43.4326-51.6113Q44.2383-52.4414 45.459-52.4414Q46.8262-52.4414 47.6318-51.6357Q48.4375-50.8301 48.4375-49.5117L48.4375-38.1836L59.8145-38.1836Q61.084-38.1836 61.9385-37.3535Q62.793-36.5234 62.793-35.2051Q62.793-33.9355 61.9385-33.1299Q61.084-32.3242 59.8145-32.3242L48.4375-32.3242L48.4375-20.9473Q48.4375-19.6777 47.6318-18.8721Q46.8262-18.0664 45.459-18.0664Q44.2383-18.0664 43.4326-18.8965Q42.627-19.7266 42.627-20.9473L42.627-32.3242L31.2988-32.3242Q29.9805-32.3242 29.1504-33.1299Q28.3203-33.9355 28.3203-35.2051Z"/>
  </g>
  <g id="Thin-S" transform="matrix(1 0 0 1 811.867 696)">
   <path d="M44.5312 2.44141Q52.3438 2.44141 59.1553-0.488281Q65.9668-3.41797 71.1914-8.64258Q76.416-13.8672 79.3457-20.6787Q82.2754-27.4902 82.2754-35.2539Q82.2754-43.0176 79.3457-49.8291Q76.416-56.6406 71.1914-61.8652Q65.9668-67.0898 59.1553-70.0195Q52.3438-72.9492 44.5312-72.9492Q36.7676-72.9492 29.9316-70.0195Q23.0957-67.0898 17.9199-61.8652Q12.7441-56.6406 9.79004-49.8291Q6.83594-43.0176 6.83594-35.2539Q6.83594-27.4902 9.79004-20.6787Q12.7441-13.8672 17.9199-8.64258Q23.0957-3.41797 29.9316-0.488281Q36.7676 2.44141 44.5312 2.44141ZM27.9785-35.2539Q27.9785-36.0352 28.4668-36.5479Q28.9551-37.0605 29.7852-37.0605L42.8223-37.0605L42.8223-50.1465Q42.8223-50.8789 43.3105-51.3916Q43.7988-51.9043 44.5312-51.9043Q45.3125-51.9043 45.8252-51.3916Q46.3379-50.8789 46.3379-50.1465L46.3379-37.0605L59.4238-37.0605Q60.1562-37.0605 60.6689-36.5479Q61.1816-36.0352 61.1816-35.2539Q61.1816-34.5215 60.6689-34.0332Q60.1562-33.5449 59.4238-33.5449L46.3379-33.5449L46.3379-20.459Q46.3379-19.7266 45.8252-19.2139Q45.3125-18.7012 44.5312-18.7012Q43.7988-18.7012 43.3105-19.2139Q42.8223-19.7266 42.8223-20.459L42.8223-33.5449L29.7852-33.5449Q29.0039-33.5449 28.4912-34.0332Q27.9785-34.5215 27.9785-35.2539Z"/>
  </g>
  <g id="Ultralight-S" transform="matrix(1 0 0 1 515.644 696)">
   <path d="M44.043 1.95312Q51.7578 1.95312 58.4717-0.927734Q65.1855-3.80859 70.3369-8.95996Q75.4883-14.1113 78.3936-20.8252Q81.2988-27.5391 81.2988-35.2539Q81.2988-42.9688 78.3936-49.6826Q75.4883-56.3965 70.3369-61.5479Q65.1855-66.6992 58.4717-69.5801Q51.7578-72.4609 44.043-72.4609Q36.377-72.4609 29.6387-69.5801Q22.9004-66.6992 17.7734-61.5479Q12.6465-56.3965 9.74121-49.6826Q6.83594-42.9688 6.83594-35.2539Q6.83594-27.5391 9.74121-20.8252Q12.6465-14.1113 17.7734-8.95996Q22.9004-3.80859 29.6387-0.927734Q36.377 1.95312 44.043 1.95312ZM27.7832-35.2539Q27.7832-35.7422 28.1006-36.1084Q28.418-36.4746 28.9551-36.4746L42.9199-36.4746L42.9199-50.4395Q42.9199-50.8789 43.2373-51.2207Q43.5547-51.5625 43.9941-51.5625Q44.5312-51.5625 44.873-51.2451Q45.2148-50.9277 45.2148-50.4395L45.2148-36.4746L59.1797-36.4746Q59.668-36.4746 60.0098-36.1084Q60.3516-35.7422 60.3516-35.2539Q60.3516-34.8145 60.0098-34.4727Q59.668-34.1309 59.1797-34.1309L45.2148-34.1309L45.2148-20.166Q45.2148-19.6777 44.873-19.3604Q44.5312-19.043 43.9941-19.043Q43.5547-19.043 43.2373-19.3848Q42.9199-19.7266 42.9199-20.166L42.9199-34.1309L28.9551-34.1309Q28.4668-34.1309 28.125-34.4727Q27.7832-34.8145 27.7832-35.2539Z"/>
  </g>
 </g>
</svg>
